<svg width="59" height="31" viewBox="0 0 59 31" fill="none" xmlns="http://www.w3.org/2000/svg">
<path d="M0.204375 0.79789H2.57238V23.8379H0.204375V0.79789ZM14.4489 24.0299C13.3182 24.0299 12.2835 23.8379 11.3449 23.4539C10.4062 23.0486 9.59554 22.4832 8.91288 21.7579C8.23021 21.0326 7.69688 20.1792 7.31288 19.1979C6.95021 18.1952 6.76888 17.1072 6.76888 15.9339V15.1019C6.76888 13.9072 6.95021 12.8192 7.31288 11.8379C7.69688 10.8566 8.23021 10.0032 8.91288 9.27789C9.59554 8.55256 10.4062 7.99789 11.3449 7.61389C12.2835 7.20856 13.3182 7.00589 14.4489 7.00589H14.7689C15.8995 7.00589 16.9342 7.20856 17.8729 7.61389C18.8115 7.99789 19.6222 8.55256 20.3049 9.27789C20.9875 10.0032 21.5102 10.8566 21.8729 11.8379C22.2569 12.8192 22.4489 13.9072 22.4489 15.1019V15.9339C22.4489 17.1072 22.2569 18.1952 21.8729 19.1979C21.5102 20.1792 20.9875 21.0326 20.3049 21.7579C19.6222 22.4832 18.8115 23.0486 17.8729 23.4539C16.9342 23.8379 15.8995 24.0299 14.7689 24.0299H14.4489ZM14.7369 21.6619C15.5262 21.6619 16.2409 21.5232 16.8809 21.2459C17.5209 20.9686 18.0649 20.5739 18.5129 20.0619C18.9822 19.5499 19.3342 18.9419 19.5689 18.2379C19.8249 17.5339 19.9529 16.7659 19.9529 15.9339V15.1019C19.9529 14.2486 19.8249 13.4699 19.5689 12.7659C19.3129 12.0619 18.9502 11.4646 18.4809 10.9739C18.0329 10.4619 17.4889 10.0672 16.8489 9.78989C16.2089 9.51256 15.5049 9.37389 14.7369 9.37389H14.4809C13.7129 9.37389 13.0089 9.51256 12.3689 9.78989C11.7289 10.0672 11.1742 10.4619 10.7049 10.9739C10.2569 11.4646 9.90488 12.0619 9.64888 12.7659C9.39288 13.4699 9.26488 14.2486 9.26488 15.1019V15.9339C9.26488 16.7659 9.38221 17.5339 9.61688 18.2379C9.87288 18.9419 10.2249 19.5499 10.6729 20.0619C11.1422 20.5739 11.6969 20.9686 12.3369 21.2459C12.9769 21.5232 13.6915 21.6619 14.4809 21.6619H14.7369ZM25.4579 12.7659C25.4579 11.9126 25.6179 11.1339 25.9379 10.4299C26.2579 9.72589 26.7059 9.11789 27.2819 8.60589C27.8579 8.09389 28.5405 7.69922 29.3299 7.42189C30.1405 7.14456 31.0365 7.00589 32.0179 7.00589H32.4659C33.2125 7.00589 33.9059 7.09122 34.5459 7.26189C35.1859 7.41122 35.7725 7.63522 36.3059 7.93389C36.4765 7.52856 36.6579 7.13389 36.8499 6.74989C37.0419 6.34456 37.2765 5.96056 37.5539 5.59789H39.9219L37.9379 9.40589C38.6632 10.3659 39.0259 11.4859 39.0259 12.7659V13.2139C39.0259 14.0672 38.8659 14.8459 38.5459 15.5499C38.2259 16.2539 37.7779 16.8619 37.2019 17.3739C36.6259 17.8859 35.9325 18.2806 35.1219 18.5579C34.3112 18.8352 33.4259 18.9739 32.4659 18.9739H32.0179C31.4205 18.9739 30.9085 18.9312 30.4819 18.8459V20.8299C31.0365 20.7659 31.6232 20.7339 32.2419 20.7339H32.7219C34.8979 20.7339 36.6152 21.1499 37.8739 21.9819C39.1325 22.8139 39.7619 23.9659 39.7619 25.4379V25.7259C39.7619 27.1766 39.1325 28.3179 37.8739 29.1499C36.6152 29.9819 34.8979 30.3979 32.7219 30.3979H32.2419C30.0445 30.3979 28.3165 29.9819 27.0579 29.1499C25.8205 28.3392 25.2019 27.1979 25.2019 25.7259V25.4379C25.2019 24.4992 25.4579 23.6886 25.9699 23.0059C26.5032 22.3232 27.2499 21.7899 28.2099 21.4059V18.0459C27.3352 17.5552 26.6525 16.8939 26.1619 16.0619C25.6925 15.2299 25.4579 14.2806 25.4579 13.2139V12.7659ZM27.9219 13.2139C27.9219 14.2806 28.2952 15.1339 29.0419 15.7739C29.8099 16.4139 30.8125 16.7339 32.0499 16.7339H32.4339C33.6712 16.7339 34.6632 16.4139 35.4099 15.7739C36.1779 15.1126 36.5619 14.2592 36.5619 13.2139V12.7659C36.5619 11.7206 36.1779 10.8779 35.4099 10.2379C34.6632 9.57656 33.6712 9.24589 32.4339 9.24589H32.0499C30.8125 9.24589 29.8099 9.56589 29.0419 10.2059C28.2952 10.8459 27.9219 11.6992 27.9219 12.7659V13.2139ZM27.6659 25.6619C27.6659 26.4726 28.0499 27.1019 28.8179 27.5499C29.6072 27.9979 30.7592 28.2219 32.2739 28.2219H32.6899C34.2045 28.2219 35.3459 27.9872 36.1139 27.5179C36.9032 27.0699 37.2979 26.4512 37.2979 25.6619V25.5019C37.2979 24.6912 36.9032 24.0619 36.1139 23.6139C35.3245 23.1446 34.1832 22.9099 32.6899 22.9099H32.2739C30.7805 22.9099 29.6392 23.1446 28.8499 23.6139C28.0605 24.0619 27.6659 24.6912 27.6659 25.5019V25.6619ZM50.0426 24.0299C48.912 24.0299 47.8773 23.8379 46.9386 23.4539C46 23.0486 45.1893 22.4832 44.5066 21.7579C43.824 21.0326 43.2906 20.1792 42.9066 19.1979C42.544 18.1952 42.3626 17.1072 42.3626 15.9339V15.1019C42.3626 13.9072 42.544 12.8192 42.9066 11.8379C43.2906 10.8566 43.824 10.0032 44.5066 9.27789C45.1893 8.55256 46 7.99789 46.9386 7.61389C47.8773 7.20856 48.912 7.00589 50.0426 7.00589H50.3626C51.4933 7.00589 52.528 7.20856 53.4666 7.61389C54.4053 7.99789 55.216 8.55256 55.8986 9.27789C56.5813 10.0032 57.104 10.8566 57.4666 11.8379C57.8506 12.8192 58.0426 13.9072 58.0426 15.1019V15.9339C58.0426 17.1072 57.8506 18.1952 57.4666 19.1979C57.104 20.1792 56.5813 21.0326 55.8986 21.7579C55.216 22.4832 54.4053 23.0486 53.4666 23.4539C52.528 23.8379 51.4933 24.0299 50.3626 24.0299H50.0426ZM50.3306 21.6619C51.12 21.6619 51.8346 21.5232 52.4746 21.2459C53.1146 20.9686 53.6586 20.5739 54.1066 20.0619C54.576 19.5499 54.928 18.9419 55.1626 18.2379C55.4186 17.5339 55.5466 16.7659 55.5466 15.9339V15.1019C55.5466 14.2486 55.4186 13.4699 55.1626 12.7659C54.9066 12.0619 54.544 11.4646 54.0746 10.9739C53.6266 10.4619 53.0826 10.0672 52.4426 9.78989C51.8026 9.51256 51.0986 9.37389 50.3306 9.37389H50.0746C49.3066 9.37389 48.6026 9.51256 47.9626 9.78989C47.3226 10.0672 46.768 10.4619 46.2986 10.9739C45.8506 11.4646 45.4986 12.0619 45.2426 12.7659C44.9866 13.4699 44.8586 14.2486 44.8586 15.1019V15.9339C44.8586 16.7659 44.976 17.5339 45.2106 18.2379C45.4666 18.9419 45.8186 19.5499 46.2666 20.0619C46.736 20.5739 47.2906 20.9686 47.9306 21.2459C48.5706 21.5232 49.2853 21.6619 50.0746 21.6619H50.3306Z" fill="#F5F5F5"/>
</svg>
