<svg width="33" height="30" viewBox="0 0 33 30" fill="none" xmlns="http://www.w3.org/2000/svg">
<path d="M3.05097 25.1262H0.347091C0.0342806 25.1262 0 25.3254 0 25.4111V28.9765C0 29.0964 0.0492783 29.3 0.387799 29.3C0.72632 29.3 0.786311 29.0964 0.786311 28.9765V27.7594L3.94441 29.2336C3.99583 29.2593 4.03654 29.2764 4.07296 29.285C4.10939 29.2936 4.15009 29.3 4.19937 29.3C4.31721 29.3 4.41363 29.2721 4.48433 29.2164C4.55932 29.1564 4.59788 29.0729 4.59788 28.97C4.59788 28.8779 4.55932 28.7493 4.37506 28.6701L2.06755 27.6545H3.04883C4.28936 27.6545 4.91926 27.3031 4.91926 26.611V26.1846C4.91926 25.4818 4.28936 25.124 3.04883 25.124L3.05097 25.1262ZM4.1351 26.1975V26.611C4.1351 26.9045 3.77515 27.0524 3.06811 27.0524H0.786311V25.7625H3.0724C3.77729 25.7625 4.1351 25.9082 4.1351 26.1975Z" fill="#F5F5F5"/>
<path d="M8.5767 26.3115H6.91409C6.02708 26.3115 5.57715 26.6136 5.57715 27.2114V28.3384C5.57715 28.9577 6.07636 29.2726 7.06193 29.2726H7.91251C8.23389 29.2726 8.28317 29.0798 8.28317 28.9662C8.28317 28.8527 8.23604 28.6598 7.91251 28.6598H7.06193C6.58628 28.6598 6.34418 28.5506 6.34418 28.3342V28.0663H9.53441C9.84722 28.0663 9.8815 27.8628 9.8815 27.7771V27.1321C9.8815 26.5879 9.44228 26.3137 8.57456 26.3137L8.5767 26.3115ZM9.11448 27.2457V27.5028H6.34632V27.2457C6.34632 27.1686 6.34632 26.9307 6.94837 26.9307H8.52956C9.11448 26.9307 9.11448 27.1664 9.11448 27.2457Z" fill="#F5F5F5"/>
<path d="M13.5117 26.3115H12.7018C12.3805 26.3115 12.3312 26.5065 12.3312 26.6243C12.3312 26.7422 12.3783 26.9307 12.7018 26.9307H13.5117C14.1373 26.9307 14.1373 27.1707 14.1373 27.25L11.7763 27.2543C10.9043 27.2543 10.4629 27.5371 10.4629 28.0963V28.4241C10.4629 28.9855 10.9043 29.2726 11.7763 29.2726H13.5653C14.4523 29.2726 14.9022 28.9727 14.9022 28.3792V27.2521C14.9022 26.6286 14.4352 26.3137 13.5139 26.3137L13.5117 26.3115ZM14.1373 27.8178V28.362C14.1373 28.4349 14.1373 28.6598 13.531 28.6598H11.8234C11.2342 28.6598 11.2342 28.4541 11.2342 28.3856V28.0856C11.2342 27.9078 11.4335 27.8178 11.8234 27.8178H14.1395H14.1373Z" fill="#F5F5F5"/>
<path d="M16.2023 25.0171C15.8659 25.0171 15.8145 25.2206 15.8145 25.3406V28.9745C15.8145 29.0945 15.8637 29.298 16.2023 29.298C16.5408 29.298 16.5901 29.0945 16.5901 28.9745V25.3406C16.5901 25.2185 16.5408 25.0171 16.2023 25.0171Z" fill="#F5F5F5"/>
<path d="M17.9151 26.2812C17.5788 26.2812 17.5273 26.4848 17.5273 26.6048V28.9745C17.5273 29.0945 17.5766 29.2981 17.9151 29.2981C18.2537 29.2981 18.3029 29.0945 18.3029 28.9745V26.6048C18.3029 26.4848 18.2537 26.2812 17.9151 26.2812Z" fill="#F5F5F5"/>
<path d="M17.9157 26.0394C18.1452 26.0394 18.3313 25.8792 18.3313 25.6815C18.3313 25.4839 18.1452 25.3237 17.9157 25.3237C17.6861 25.3237 17.5 25.4839 17.5 25.6815C17.5 25.8792 17.6861 26.0394 17.9157 26.0394Z" fill="#F5F5F5"/>
<path d="M21.2394 26.3346H20.3332V25.889C20.3332 25.769 20.2817 25.5654 19.9389 25.5654C19.5961 25.5654 19.5576 25.769 19.5576 25.889V26.3346H19.4033C19.0862 26.3346 19.0391 26.5275 19.0391 26.641C19.0391 26.7546 19.0862 26.9474 19.4033 26.9474H19.5576V28.9743C19.5576 29.0943 19.609 29.2979 19.9496 29.2979C20.2903 29.2979 20.331 29.0943 20.331 28.9743V26.9474H21.2373C21.5587 26.9474 21.608 26.7546 21.608 26.641C21.608 26.5275 21.5608 26.3346 21.2373 26.3346H21.2394Z" fill="#F5F5F5"/>
<path d="M22.735 25.3213C22.3729 25.3213 22.3193 25.5463 22.3193 25.6791C22.3193 25.8119 22.3729 26.0369 22.735 26.0369C23.0971 26.0369 23.1506 25.8119 23.1506 25.6791C23.1506 25.5463 23.0971 25.3213 22.735 25.3213Z" fill="#F5F5F5"/>
<path d="M22.7335 26.2812C22.3971 26.2812 22.3457 26.4848 22.3457 26.6048V28.9745C22.3457 29.0945 22.395 29.2981 22.7335 29.2981C23.072 29.2981 23.1213 29.0945 23.1213 28.9745V26.6048C23.1213 26.4848 23.0699 26.2812 22.7335 26.2812Z" fill="#F5F5F5"/>
<path d="M27.0298 26.3115H25.3672C24.4802 26.3115 24.0303 26.6136 24.0303 27.2114V28.3384C24.0303 28.9577 24.5295 29.2726 25.5172 29.2726H26.3678C26.6892 29.2726 26.7384 29.0798 26.7384 28.9662C26.7384 28.8527 26.6913 28.6598 26.3678 28.6598H25.5172C25.0415 28.6598 24.7994 28.5506 24.7994 28.3342V28.0663H27.9897C28.3025 28.0663 28.3368 27.8628 28.3368 27.7771V27.1321C28.3368 26.5879 27.8976 26.3137 27.0298 26.3137V26.3115ZM27.5676 27.2457V27.5028H24.7994V27.2457C24.7994 27.1686 24.7994 26.9307 25.4015 26.9307H26.9827C27.5676 26.9307 27.5676 27.1664 27.5676 27.2457Z" fill="#F5F5F5"/>
<path d="M31.6372 27.5347H30.4524C29.8204 27.5347 29.7882 27.4082 29.7882 27.3825V27.1297C29.7882 27.0033 30.0325 26.9304 30.4588 26.9304H31.2473C31.3587 26.9304 31.4444 26.9069 31.5108 26.8597C31.5623 26.8233 31.6244 26.7526 31.6244 26.6219C31.6244 26.5041 31.5751 26.3091 31.2473 26.3091H30.4588C29.5076 26.3091 29.0255 26.5855 29.0255 27.1276V27.3975C29.0255 27.8689 29.4947 28.1067 30.4203 28.1067H31.6051C32.2136 28.1067 32.2307 28.2182 32.2307 28.2203V28.5417C32.2307 28.5417 32.2136 28.6553 31.6051 28.6553H29.3619C29.0405 28.6553 28.9912 28.8481 28.9912 28.9616C28.9912 29.0752 29.0383 29.268 29.3619 29.268H31.6051C32.5307 29.268 32.9999 29.0238 32.9999 28.5417V28.2032C32.9999 27.7596 32.5435 27.5347 31.6415 27.5347H31.6372Z" fill="#F5F5F5"/>
<path d="M11.6477 16.8496H9.01878C7.77825 16.8496 6.95552 16.646 6.5463 16.2346C6.13707 15.8254 5.93139 15.0005 5.93139 13.7599V0H0.0244141V13.7621C0.0244141 16.661 0.542908 18.7501 1.58418 20.0292C2.70258 21.3941 4.58587 22.1033 7.21477 22.174L9.77295 22.1868L11.6477 16.8496Z" fill="#F5F5F5"/>
<path d="M17.5626 0H13.541V11.4545L17.5626 0Z" fill="#F5F5F5"/>
<path d="M18.9933 16.8496H18.9954L21.9414 8.44621L25.1124 16.8496H20.1888L18.3227 22.1868H32.9969L24.9024 0H18.7555L10.9609 22.1868H17.0972L18.9933 16.8496Z" fill="#F5F5F5"/>
</svg>
