<svg width="20" height="20" viewBox="0 0 20 20" fill="none" xmlns="http://www.w3.org/2000/svg">
<g clip-path="url(#clip0_221_6190)">
<path d="M18.8704 4.69019C18.497 5.34289 18.2026 7.12769 18.1309 7.69522C18.115 7.82058 18.0789 7.94115 18.0235 8.05476C17.8453 8.42028 17.4571 9.26102 17.3091 9.93387C17.2755 10.087 17.1897 10.2226 17.0655 10.3183C13.8487 12.7994 15.0201 11.9148 14.7553 12.0944C15.2514 11.3433 16.2535 10.2488 16.4323 9.56993C16.6517 8.73439 16.1606 8.42977 15.8879 8.74279C15.084 9.66564 12.4237 11.8072 12.4237 11.8072C10.5542 13.3176 10.7062 14.254 11.8857 19.4392H15.3098L15.026 18.5871C14.6813 17.5523 14.8424 16.414 15.4704 15.5221C16.3784 14.2327 17.7837 12.3755 18.5416 11.3818C18.8879 10.9278 19.1046 10.3903 19.1709 9.8232C19.4414 7.48312 19.4367 7.60889 19.4368 7.47155L19.4386 4.62729C19.4387 4.36606 19.0699 4.3412 18.8704 4.69019ZM1.12868 4.69019C1.50212 5.34289 1.79649 7.12769 1.86825 7.69522C1.88407 7.82058 1.92023 7.94115 1.97564 8.05476C2.1538 8.42028 2.54204 9.26102 2.68996 9.93387C2.72364 10.087 2.80944 10.2226 2.93356 10.3183C6.15035 12.7994 4.97901 11.9148 5.24377 12.0944C4.74769 11.3433 3.74555 10.2488 3.56682 9.56993C3.34741 8.73439 3.83852 8.42977 4.11119 8.74279C4.91509 9.66564 7.57542 11.8072 7.57542 11.8072C9.44486 13.3176 9.29295 14.254 8.11335 19.4392H4.68935L4.97313 18.5871C5.31779 17.5523 5.15665 16.414 4.52866 15.5221C3.62069 14.2327 2.21543 12.3755 1.45752 11.3818C1.11124 10.9278 0.894506 10.3903 0.828212 9.8232C0.557684 7.48312 0.562393 7.60889 0.562317 7.47155L0.560547 4.62729C0.560396 4.36606 0.929198 4.3412 1.12868 4.69019Z" fill="#F5F5F5"/>
<path d="M15.4357 3.53378C15.4357 7.67328 10.0016 10.3873 10.0016 10.3873C10.0016 10.3873 4.56445 7.67328 4.56445 3.53378C4.56445 1.89303 5.89645 0.561035 7.53728 0.561035C8.56356 0.561035 9.46819 1.07885 10.0016 1.86806C10.535 1.07881 11.4397 0.561035 12.4629 0.561035C14.1068 0.560997 15.4357 1.89303 15.4357 3.53378Z" fill="#F5F5F5"/>
<path d="M19.3526 4.24341C19.1539 4.19064 18.8746 4.27754 18.6956 4.59055C18.3027 5.27738 18.0046 7.08948 17.9311 7.6702C17.9182 7.77296 17.8884 7.87281 17.8425 7.96695C17.6337 8.39519 17.2612 9.21468 17.1126 9.89073C17.0891 9.99741 17.0287 10.0929 16.9425 10.1594C16.4583 10.5329 16.0734 10.8303 15.768 11.0664C16.1606 10.5452 16.5184 10.0306 16.6261 9.62107C16.7958 8.97534 16.5823 8.60142 16.3479 8.47738C16.1418 8.36833 15.9017 8.4208 15.7361 8.61102C14.953 9.50995 12.3238 11.6295 12.2971 11.651C10.3405 13.2319 10.5022 14.2647 11.6896 19.4839C11.7104 19.5754 11.7917 19.6402 11.8854 19.6402H15.3094C15.3739 19.6402 15.4345 19.6092 15.4723 19.5568C15.51 19.5045 15.5203 19.4371 15.4999 19.3759L15.2161 18.5238C14.8916 17.5493 15.048 16.4705 15.6343 15.6378C16.542 14.3488 17.9453 12.4944 18.7009 11.5037C19.0682 11.0222 19.2996 10.4492 19.37 9.84632C19.4746 8.94208 19.538 8.40619 19.5765 8.081C19.6373 7.56737 19.6373 7.56737 19.6373 7.47173L19.6391 4.62762C19.6391 4.44064 19.5267 4.28982 19.3526 4.24341ZM19.2356 7.4784C19.2356 7.5436 19.2356 7.5436 19.1776 8.03373C19.1391 8.3591 19.0756 8.89541 18.971 9.79992C18.909 10.331 18.7051 10.8358 18.3816 11.2601C17.6242 12.253 16.2174 14.112 15.3058 15.4065C14.6465 16.343 14.4705 17.5557 14.835 18.6506L15.0308 19.2385H12.0457C10.916 14.2663 10.7945 13.3815 12.5492 11.9636C12.6584 11.8758 15.2327 9.80041 16.0389 8.87477C16.068 8.84143 16.1124 8.80689 16.16 8.83232C16.251 8.88057 16.3468 9.10318 16.2376 9.51896C16.1273 9.93827 15.6313 10.5861 15.1936 11.1577C14.9667 11.454 14.7523 11.734 14.5873 11.9838C14.537 12.0599 14.5451 12.1688 14.5975 12.2337C14.6028 12.2403 14.7239 12.387 14.8976 12.2505C14.9888 12.1791 15.4409 11.8248 17.1879 10.4774C17.3485 10.3534 17.4611 10.1756 17.5048 9.9771C17.6498 9.31781 18.0417 8.47478 18.2035 8.14285C18.2687 8.0091 18.3112 7.8669 18.3296 7.72049C18.4187 7.01622 18.7106 5.37328 19.0443 4.79C19.128 4.64359 19.2294 4.62347 19.2373 4.62732C19.2368 5.58015 19.2362 6.52862 19.2356 7.4784ZM7.70098 11.6509C7.6745 11.6295 5.04535 9.50995 4.26221 8.61102C4.09659 8.42076 3.85653 8.36833 3.65041 8.47738C3.41605 8.60142 3.20255 8.97534 3.3722 9.62119C3.47997 10.0306 3.8377 10.5452 4.23034 11.0664C3.92509 10.8303 3.54016 10.5331 3.05595 10.1596C2.96965 10.093 2.90923 9.99748 2.88573 9.89088C2.73717 9.21475 2.36464 8.39522 2.15585 7.96698C2.10997 7.87285 2.08014 7.77303 2.06722 7.67016C1.99376 7.08952 1.69566 5.27745 1.30272 4.59063C1.12376 4.27761 0.844268 4.19083 0.645798 4.24348C0.471624 4.28985 0.359262 4.44067 0.359375 4.62758L0.361145 7.47855C0.361145 7.56741 0.361145 7.56741 0.421941 8.08104C0.460474 8.40622 0.523831 8.94212 0.628471 9.84666C0.698871 10.4493 0.930225 11.0222 1.29756 11.5037C2.05313 12.4945 3.45639 14.3488 4.36406 15.6378C4.95039 16.4706 5.10679 17.5494 4.78228 18.5238L4.4985 19.376C4.47808 19.4372 4.4884 19.5045 4.52614 19.5569C4.56389 19.6092 4.62449 19.6402 4.68902 19.6402H8.11299C8.20674 19.6402 8.28803 19.5754 8.30882 19.4839C9.49613 14.2647 9.65784 13.232 7.70098 11.6509ZM7.95264 19.2385H4.96761L5.16333 18.6507C5.52791 17.5558 5.35189 16.343 4.69245 15.4066C3.78097 14.112 2.37424 12.2531 1.61683 11.2601C1.2933 10.8359 1.08944 10.3311 1.02737 9.80026C0.922842 8.89545 0.859297 8.35914 0.820839 8.03377C0.762793 7.54364 0.762793 7.54364 0.762793 7.47158C0.760759 7.06138 0.751794 5.26148 0.748668 4.6318C0.769837 4.62396 0.870258 4.64355 0.953993 4.79008C1.28769 5.37336 1.57965 7.0163 1.66866 7.72049C1.68708 7.86698 1.72956 8.00917 1.79477 8.14293C1.95659 8.47485 2.34852 9.31792 2.49346 9.97729C2.53719 10.1758 2.64978 10.3535 2.81051 10.4776C4.55741 11.8249 5.00957 12.1792 5.10065 12.2506C5.10389 12.2531 5.10731 12.2556 5.11074 12.258C5.11202 12.259 5.11319 12.26 5.11436 12.2611L5.11466 12.2607C5.20205 12.3182 5.33532 12.315 5.40082 12.2338C5.45318 12.1689 5.46124 12.06 5.41103 11.9839C5.24601 11.7341 5.03164 11.4542 4.80469 11.1578C4.36704 10.5862 3.87103 9.93838 3.7607 9.51918C3.65147 9.1033 3.74726 8.88068 3.83826 8.83247C3.88591 8.80738 3.93036 8.8417 3.95936 8.87492C4.76563 9.80052 7.33986 11.8759 7.44883 11.9636C9.20391 13.3817 9.08239 14.2663 7.95264 19.2385ZM15.6357 3.53394C15.6357 1.78403 14.2121 0.360352 12.462 0.360352C11.5008 0.360352 10.5999 0.793489 10.0008 1.53143C9.4014 0.793527 8.49942 0.360352 7.53652 0.360352C5.7865 0.360352 4.36282 1.78403 4.36282 3.53394C4.36282 7.74915 9.68458 10.454 9.91108 10.5671C9.96709 10.5951 10.0336 10.5956 10.0905 10.5671C10.317 10.454 15.6357 7.74915 15.6357 3.53394ZM10.0008 10.1607C9.30098 9.7859 4.7645 7.21254 4.7645 3.53394C4.7645 2.00555 6.00802 0.761999 7.53652 0.761999C8.45968 0.761999 9.31872 1.21759 9.83442 1.98073C9.90916 2.09113 10.0925 2.09113 10.1673 1.98073C10.6829 1.21762 11.5407 0.761999 12.462 0.761999C13.9905 0.761999 15.234 2.00551 15.234 3.53394C15.234 7.21266 10.7002 9.7859 10.0008 10.1607Z" fill="#F5F5F5"/>
</g>
<defs>
<clipPath id="clip0_221_6190">
<rect width="20" height="20" fill="white"/>
</clipPath>
</defs>
</svg>
