<svg width="1440" height="800" viewBox="0 0 1440 800" fill="none" xmlns="http://www.w3.org/2000/svg">
<rect x="0.5" y="0.5" width="1439" height="799" fill="#1B1C1D"/>
<rect x="0.5" y="0.5" width="1439" height="799" stroke="#2F3231"/>
<rect x="0.5" y="0.5" width="1439" height="799" stroke="#2F3231"/>
<rect x="0.5" y="0.5" width="1439" height="799" stroke="#F5F5F5"/>
<rect x="261.5" y="151.5" width="917" height="497" stroke="#2F3231" stroke-width="3"/>
<rect x="261.5" y="151.5" width="917" height="497" stroke="#2F3231" stroke-width="3"/>
<rect x="261.5" y="151.5" width="917" height="497" stroke="#F5F5F5" stroke-width="3"/>
<rect x="355.5" y="200.5" width="729" height="399" stroke="#2F3231"/>
<rect x="355.5" y="200.5" width="729" height="399" stroke="#2F3231"/>
<rect x="355.5" y="200.5" width="729" height="399" stroke="#F5F5F5"/>
<rect x="451.5" y="251.5" width="537" height="297" stroke="#2F3231" stroke-width="3"/>
<rect x="451.5" y="251.5" width="537" height="297" stroke="#2F3231" stroke-width="3"/>
<rect x="451.5" y="251.5" width="537" height="297" stroke="#F5F5F5" stroke-width="3"/>
<rect x="165.5" y="100.5" width="1109" height="599" stroke="#2F3231"/>
<rect x="165.5" y="100.5" width="1109" height="599" stroke="#2F3231"/>
<rect x="165.5" y="100.5" width="1109" height="599" stroke="#F5F5F5"/>
<rect x="71.5" y="51.5" width="1297" height="697" stroke="#2F3231" stroke-width="3"/>
<rect x="71.5" y="51.5" width="1297" height="697" stroke="#2F3231" stroke-width="3"/>
<rect x="71.5" y="51.5" width="1297" height="697" stroke="#F5F5F5" stroke-width="3"/>
<path d="M521.031 88.112V74.36H514.479C513.687 74.36 513.279 74.048 513.279 73.376C513.279 72.728 513.687 72.392 514.479 72.392H530.151C530.967 72.392 531.375 72.728 531.375 73.352C531.375 74.024 530.967 74.36 530.151 74.36H523.623V88.112C523.623 88.784 523.191 89.12 522.351 89.12C521.463 89.12 521.031 88.784 521.031 88.112ZM551.257 88.88L537.577 82.496V88.112C537.577 88.784 537.121 89.12 536.257 89.12C535.417 89.12 534.985 88.784 534.985 88.112V73.232C534.985 72.68 535.369 72.392 536.089 72.392H547.369C552.337 72.392 554.833 73.736 554.833 76.472V78.248C554.833 80.912 552.337 82.256 547.369 82.256H541.633L552.769 87.152C553.273 87.368 553.489 87.656 553.489 88.088C553.489 88.712 553.009 89.12 552.169 89.12C551.809 89.12 551.641 89.072 551.257 88.88ZM537.577 74.528V80.432H547.441C550.657 80.432 552.241 79.712 552.241 78.248V76.52C552.241 75.08 550.657 74.36 547.465 74.36H537.769C537.649 74.36 537.577 74.408 537.577 74.528ZM576.435 74.12L568.587 81.728V88.112C568.587 88.784 568.155 89.12 567.291 89.12C566.427 89.12 565.971 88.784 565.971 88.112V81.728L558.123 74.12C557.835 73.856 557.691 73.664 557.691 73.304C557.691 72.656 558.219 72.272 559.035 72.272C559.539 72.272 559.827 72.44 560.163 72.776L567.291 79.832L574.443 72.752C574.755 72.44 575.043 72.272 575.595 72.272C576.339 72.272 576.867 72.656 576.867 73.304C576.867 73.664 576.699 73.88 576.435 74.12ZM589.695 72.272C590.175 72.272 590.607 72.512 590.895 72.968L599.439 86.288L608.007 72.968C608.295 72.512 608.703 72.272 609.231 72.272C610.047 72.272 610.575 72.632 610.575 73.256C610.575 73.496 610.503 73.688 610.287 74.024L600.783 88.472C600.495 88.928 599.991 89.12 599.487 89.12C598.935 89.12 598.479 88.904 598.191 88.472L588.639 74C588.423 73.688 588.375 73.496 588.375 73.256C588.375 72.632 588.879 72.272 589.695 72.272ZM614.274 88.112V73.28C614.274 72.608 614.73 72.272 615.618 72.272C616.434 72.272 616.866 72.608 616.866 73.28V88.112C616.866 88.784 616.41 89.12 615.546 89.12C614.706 89.12 614.274 88.784 614.274 88.112ZM637.859 88.88L624.179 82.496V88.112C624.179 88.784 623.723 89.12 622.859 89.12C622.019 89.12 621.587 88.784 621.587 88.112V73.232C621.587 72.68 621.971 72.392 622.691 72.392H633.971C638.939 72.392 641.435 73.736 641.435 76.472V78.248C641.435 80.912 638.939 82.256 633.971 82.256H628.235L639.371 87.152C639.875 87.368 640.091 87.656 640.091 88.088C640.091 88.712 639.611 89.12 638.771 89.12C638.411 89.12 638.243 89.072 637.859 88.88ZM624.179 74.528V80.432H634.043C637.259 80.432 638.843 79.712 638.843 78.248V76.52C638.843 75.08 637.259 74.36 634.067 74.36H624.371C624.251 74.36 624.179 74.408 624.179 74.528ZM652.187 88.112V74.36H645.635C644.843 74.36 644.435 74.048 644.435 73.376C644.435 72.728 644.843 72.392 645.635 72.392H661.307C662.123 72.392 662.531 72.728 662.531 73.352C662.531 74.024 662.123 74.36 661.307 74.36H654.779V88.112C654.779 88.784 654.347 89.12 653.507 89.12C652.619 89.12 652.187 88.784 652.187 88.112ZM678.598 89H673.126C668.446 89 666.094 87.44 666.094 84.296V73.28C666.094 72.608 666.526 72.272 667.39 72.272C668.254 72.272 668.686 72.608 668.686 73.28V84.224C668.686 86.096 670.198 87.032 673.246 87.032H678.478C681.526 87.032 683.014 86.096 683.014 84.224V73.28C683.014 72.608 683.47 72.272 684.334 72.272C685.198 72.272 685.63 72.608 685.63 73.28V84.296C685.63 87.44 683.254 89 678.598 89ZM708.203 88.424L705.707 84.56H693.587L691.115 88.424C690.803 88.904 690.371 89.12 689.867 89.12C689.075 89.12 688.547 88.76 688.547 88.136C688.547 87.896 688.595 87.704 688.811 87.392L698.315 72.92C698.603 72.488 699.107 72.296 699.635 72.272C700.163 72.272 700.619 72.488 700.907 72.92L710.435 87.368C710.675 87.68 710.747 87.896 710.747 88.136C710.747 88.76 710.219 89.12 709.427 89.12C708.947 89.12 708.515 88.904 708.203 88.424ZM699.635 75.128L694.787 82.712H704.531L699.635 75.128ZM730.761 89H720.705C716.025 89 713.673 87.44 713.673 84.296V73.28C713.673 72.608 714.105 72.272 714.945 72.272C715.809 72.272 716.265 72.608 716.265 73.28V84.224C716.265 86.096 717.753 87.032 720.825 87.032H730.761C731.553 87.032 731.961 87.368 731.961 88.016C731.961 88.664 731.553 89 730.761 89ZM761.341 89H751.477C746.797 89 744.445 87.464 744.445 84.392V76.928C744.445 73.904 746.749 72.392 751.357 72.392H754.789C755.581 72.392 755.989 72.728 755.989 73.376C755.989 74.024 755.581 74.36 754.789 74.36H751.405C748.501 74.36 747.037 75.224 747.037 76.976V79.688H761.341C762.109 79.688 762.493 80 762.493 80.624C762.493 81.248 762.109 81.56 761.341 81.56H747.037V84.32C747.037 86.12 748.525 87.032 751.597 87.032H761.341C762.157 87.032 762.565 87.368 762.565 88.016C762.565 88.664 762.157 89 761.341 89ZM783.366 88.688L775.974 82.208L768.606 88.712C768.222 89.048 767.862 89.12 767.502 89.12C766.71 89.12 766.206 88.76 766.206 88.184C766.206 87.8 766.326 87.608 766.734 87.248L774.198 80.648L766.878 74.216C766.422 73.832 766.35 73.568 766.35 73.304C766.35 72.656 766.854 72.272 767.67 72.272C768.078 72.272 768.39 72.368 768.774 72.704L776.07 79.136L783.39 72.704C783.75 72.392 784.062 72.272 784.494 72.272C785.238 72.272 785.766 72.632 785.766 73.208C785.766 73.568 785.598 73.832 785.238 74.144L777.846 80.696L785.262 87.2C785.742 87.632 785.814 87.872 785.814 88.088C785.814 88.736 785.286 89.12 784.47 89.12C784.062 89.12 783.75 89.024 783.366 88.688ZM807.24 88.112V81.776H792.648V88.112C792.648 88.784 792.216 89.12 791.328 89.12C790.488 89.12 790.056 88.784 790.056 88.112V73.28C790.056 72.608 790.512 72.272 791.4 72.272C792.24 72.272 792.648 72.608 792.648 73.28V79.808H807.24V73.256C807.24 72.608 807.672 72.272 808.512 72.272C809.376 72.272 809.832 72.608 809.832 73.256V88.112C809.832 88.784 809.376 89.12 808.512 89.12C807.672 89.12 807.24 88.784 807.24 88.112ZM814.595 88.112V73.28C814.595 72.608 815.051 72.272 815.939 72.272C816.755 72.272 817.187 72.608 817.187 73.28V88.112C817.187 88.784 816.731 89.12 815.867 89.12C815.027 89.12 814.595 88.784 814.595 88.112ZM841.563 83.672V85.352C841.563 87.8 839.499 89 835.395 89H823.059C822.315 89 821.907 88.688 821.907 88.064V73.328C821.907 72.704 822.315 72.392 823.059 72.392H835.011C839.187 72.392 841.299 73.712 841.299 76.352V77.72C841.299 78.992 840.627 79.928 839.307 80.576C840.795 81.248 841.563 82.28 841.563 83.672ZM838.971 85.136V83.576C838.971 82.232 837.747 81.56 835.299 81.56H824.499V86.864C824.499 86.984 824.571 87.032 824.691 87.032H835.299C837.747 87.032 838.971 86.408 838.971 85.136ZM838.731 77.768V76.424C838.731 75.056 837.507 74.36 835.035 74.36H824.691C824.571 74.36 824.499 74.408 824.499 74.528V79.712H835.227C837.555 79.712 838.731 79.064 838.731 77.768ZM845.931 88.112V73.28C845.931 72.608 846.387 72.272 847.275 72.272C848.091 72.272 848.523 72.608 848.523 73.28V88.112C848.523 88.784 848.067 89.12 847.203 89.12C846.363 89.12 845.931 88.784 845.931 88.112ZM859.843 88.112V74.36H853.291C852.499 74.36 852.091 74.048 852.091 73.376C852.091 72.728 852.499 72.392 853.291 72.392H868.963C869.779 72.392 870.187 72.728 870.187 73.352C870.187 74.024 869.779 74.36 868.963 74.36H862.435V88.112C862.435 88.784 862.003 89.12 861.163 89.12C860.275 89.12 859.843 88.784 859.843 88.112ZM873.798 88.112V73.28C873.798 72.608 874.254 72.272 875.142 72.272C875.958 72.272 876.39 72.608 876.39 73.28V88.112C876.39 88.784 875.934 89.12 875.07 89.12C874.23 89.12 873.798 88.784 873.798 88.112ZM897.622 84.32V77.024C897.622 75.248 896.158 74.36 893.254 74.36H887.998C885.094 74.36 883.63 75.248 883.63 77.024V84.32C883.63 86.12 885.094 87.032 888.046 87.032H893.206C896.158 87.032 897.622 86.12 897.622 84.32ZM893.182 89H888.07C883.39 89 881.038 87.464 881.038 84.392V76.976C881.038 73.928 883.342 72.392 887.95 72.392H893.302C897.91 72.392 900.214 73.928 900.214 76.976V84.392C900.214 87.464 897.862 89 893.182 89ZM906.22 72.272C906.724 72.272 907.084 72.44 907.492 72.8L921.964 85.568V73.256C921.964 72.608 922.396 72.272 923.26 72.272C924.124 72.272 924.556 72.608 924.556 73.256V88.112C924.556 88.784 924.1 89.12 923.188 89.12C922.66 89.12 922.324 88.928 921.916 88.568L907.468 75.8V88.112C907.468 88.784 907.012 89.12 906.148 89.12C905.308 89.12 904.876 88.784 904.876 88.112V73.304C904.876 72.608 905.332 72.272 906.22 72.272Z" fill="#F5F5F5"/>
<path d="M153.112 558.969H139.36V565.521C139.36 566.313 139.048 566.721 138.376 566.721C137.728 566.721 137.392 566.313 137.392 565.521V549.849C137.392 549.033 137.728 548.625 138.352 548.625C139.024 548.625 139.36 549.033 139.36 549.849V556.377H153.112C153.784 556.377 154.12 556.809 154.12 557.649C154.12 558.537 153.784 558.969 153.112 558.969ZM153.88 528.743L147.496 542.423H153.112C153.784 542.423 154.12 542.879 154.12 543.743C154.12 544.583 153.784 545.015 153.112 545.015H138.232C137.68 545.015 137.392 544.631 137.392 543.911V532.631C137.392 527.663 138.736 525.167 141.472 525.167H143.248C145.912 525.167 147.256 527.663 147.256 532.631V538.367L152.152 527.231C152.368 526.727 152.656 526.511 153.088 526.511C153.712 526.511 154.12 526.991 154.12 527.831C154.12 528.191 154.072 528.359 153.88 528.743ZM139.528 542.423H145.432V532.559C145.432 529.343 144.712 527.759 143.248 527.759H141.52C140.08 527.759 139.36 529.343 139.36 532.535V542.231C139.36 542.351 139.408 542.423 139.528 542.423ZM139.12 503.565L146.728 511.413H153.112C153.784 511.413 154.12 511.845 154.12 512.709C154.12 513.573 153.784 514.029 153.112 514.029H146.728L139.12 521.877C138.856 522.165 138.664 522.309 138.304 522.309C137.656 522.309 137.272 521.781 137.272 520.965C137.272 520.461 137.44 520.173 137.776 519.837L144.832 512.709L137.752 505.557C137.44 505.245 137.272 504.957 137.272 504.405C137.272 503.661 137.656 503.133 138.304 503.133C138.664 503.133 138.88 503.301 139.12 503.565ZM137.272 490.305C137.272 489.825 137.512 489.393 137.968 489.105L151.288 480.561L137.968 471.993C137.512 471.705 137.272 471.297 137.272 470.769C137.272 469.953 137.632 469.425 138.256 469.425C138.496 469.425 138.688 469.497 139.024 469.713L153.472 479.217C153.928 479.505 154.12 480.009 154.12 480.513C154.12 481.065 153.904 481.521 153.472 481.809L139 491.361C138.688 491.577 138.496 491.625 138.256 491.625C137.632 491.625 137.272 491.121 137.272 490.305ZM153.112 465.726H138.28C137.608 465.726 137.272 465.27 137.272 464.382C137.272 463.566 137.608 463.134 138.28 463.134H153.112C153.784 463.134 154.12 463.59 154.12 464.454C154.12 465.294 153.784 465.726 153.112 465.726ZM153.88 442.141L147.496 455.821H153.112C153.784 455.821 154.12 456.277 154.12 457.141C154.12 457.981 153.784 458.413 153.112 458.413H138.232C137.68 458.413 137.392 458.029 137.392 457.309V446.029C137.392 441.061 138.736 438.565 141.472 438.565H143.248C145.912 438.565 147.256 441.061 147.256 446.029V451.765L152.152 440.629C152.368 440.125 152.656 439.909 153.088 439.909C153.712 439.909 154.12 440.389 154.12 441.229C154.12 441.589 154.072 441.757 153.88 442.141ZM139.528 455.821H145.432V445.957C145.432 442.741 144.712 441.157 143.248 441.157H141.52C140.08 441.157 139.36 442.741 139.36 445.933V455.629C139.36 455.749 139.408 455.821 139.528 455.821ZM153.112 427.813H139.36V434.365C139.36 435.157 139.048 435.565 138.376 435.565C137.728 435.565 137.392 435.157 137.392 434.365V418.693C137.392 417.877 137.728 417.469 138.352 417.469C139.024 417.469 139.36 417.877 139.36 418.693V425.221H153.112C153.784 425.221 154.12 425.653 154.12 426.493C154.12 427.381 153.784 427.813 153.112 427.813ZM154 401.402V406.874C154 411.554 152.44 413.906 149.296 413.906H138.28C137.608 413.906 137.272 413.474 137.272 412.61C137.272 411.746 137.608 411.314 138.28 411.314H149.224C151.096 411.314 152.032 409.802 152.032 406.754V401.522C152.032 398.474 151.096 396.986 149.224 396.986H138.28C137.608 396.986 137.272 396.53 137.272 395.666C137.272 394.802 137.608 394.37 138.28 394.37H149.296C152.44 394.37 154 396.746 154 401.402ZM153.424 371.797L149.56 374.293V386.413L153.424 388.885C153.904 389.197 154.12 389.629 154.12 390.133C154.12 390.925 153.76 391.453 153.136 391.453C152.896 391.453 152.704 391.405 152.392 391.189L137.92 381.685C137.488 381.397 137.296 380.893 137.272 380.365C137.272 379.837 137.488 379.381 137.92 379.093L152.368 369.565C152.68 369.325 152.896 369.253 153.136 369.253C153.76 369.253 154.12 369.781 154.12 370.573C154.12 371.053 153.904 371.485 153.424 371.797ZM140.128 380.365L147.712 385.213V375.469L140.128 380.365ZM154 349.239V359.295C154 363.975 152.44 366.327 149.296 366.327H138.28C137.608 366.327 137.272 365.895 137.272 365.055C137.272 364.191 137.608 363.735 138.28 363.735H149.224C151.096 363.735 152.032 362.247 152.032 359.175V349.239C152.032 348.447 152.368 348.039 153.016 348.039C153.664 348.039 154 348.447 154 349.239ZM154 318.659V328.523C154 333.203 152.464 335.555 149.392 335.555H141.928C138.904 335.555 137.392 333.251 137.392 328.643V325.211C137.392 324.419 137.728 324.011 138.376 324.011C139.024 324.011 139.36 324.419 139.36 325.211V328.595C139.36 331.499 140.224 332.963 141.976 332.963H144.688L144.688 318.659C144.688 317.891 145 317.507 145.624 317.507C146.248 317.507 146.56 317.891 146.56 318.659L146.56 332.963H149.32C151.12 332.963 152.032 331.475 152.032 328.403V318.659C152.032 317.843 152.368 317.435 153.016 317.435C153.664 317.435 154 317.843 154 318.659ZM153.688 296.634L147.208 304.026L153.712 311.394C154.048 311.778 154.12 312.138 154.12 312.498C154.12 313.29 153.76 313.794 153.184 313.794C152.8 313.794 152.608 313.674 152.248 313.266L145.648 305.802L139.216 313.122C138.832 313.578 138.568 313.65 138.304 313.65C137.656 313.65 137.272 313.146 137.272 312.33C137.272 311.922 137.368 311.61 137.704 311.226L144.136 303.93L137.704 296.61C137.392 296.25 137.272 295.938 137.272 295.506C137.272 294.762 137.632 294.234 138.208 294.234C138.568 294.234 138.832 294.402 139.144 294.762L145.696 302.154L152.2 294.738C152.632 294.258 152.872 294.186 153.088 294.186C153.736 294.186 154.12 294.714 154.12 295.53C154.12 295.938 154.024 296.25 153.688 296.634ZM153.112 272.76H146.776V287.352H153.112C153.784 287.352 154.12 287.784 154.12 288.672C154.12 289.512 153.784 289.944 153.112 289.944H138.28C137.608 289.944 137.272 289.488 137.272 288.6C137.272 287.76 137.608 287.352 138.28 287.352H144.808V272.76H138.256C137.608 272.76 137.272 272.328 137.272 271.488C137.272 270.624 137.608 270.168 138.256 270.168H153.112C153.784 270.168 154.12 270.624 154.12 271.488C154.12 272.328 153.784 272.76 153.112 272.76ZM153.112 265.405H138.28C137.608 265.405 137.272 264.949 137.272 264.061C137.272 263.245 137.608 262.813 138.28 262.813H153.112C153.784 262.813 154.12 263.269 154.12 264.133C154.12 264.973 153.784 265.405 153.112 265.405ZM148.672 238.437H150.352C152.8 238.437 154 240.501 154 244.605V256.941C154 257.685 153.688 258.093 153.064 258.093H138.328C137.704 258.093 137.392 257.685 137.392 256.941V244.989C137.392 240.813 138.712 238.701 141.352 238.701H142.72C143.992 238.701 144.928 239.373 145.576 240.693C146.248 239.205 147.28 238.437 148.672 238.437ZM150.136 241.029H148.576C147.232 241.029 146.56 242.253 146.56 244.701V255.501H151.864C151.984 255.501 152.032 255.429 152.032 255.309V244.701C152.032 242.253 151.408 241.029 150.136 241.029ZM142.768 241.269H141.424C140.056 241.269 139.36 242.493 139.36 244.965V255.309C139.36 255.429 139.408 255.501 139.528 255.501H144.712V244.773C144.712 242.445 144.064 241.269 142.768 241.269ZM153.112 234.069H138.28C137.608 234.069 137.272 233.613 137.272 232.725C137.272 231.909 137.608 231.477 138.28 231.477H153.112C153.784 231.477 154.12 231.933 154.12 232.797C154.12 233.637 153.784 234.069 153.112 234.069ZM153.112 220.157H139.36V226.709C139.36 227.501 139.048 227.909 138.376 227.909C137.728 227.909 137.392 227.501 137.392 226.709V211.037C137.392 210.221 137.728 209.813 138.352 209.813C139.024 209.813 139.36 210.221 139.36 211.037V217.565H153.112C153.784 217.565 154.12 217.997 154.12 218.837C154.12 219.725 153.784 220.157 153.112 220.157ZM153.112 206.202H138.28C137.608 206.202 137.272 205.746 137.272 204.858C137.272 204.042 137.608 203.61 138.28 203.61H153.112C153.784 203.61 154.12 204.066 154.12 204.93C154.12 205.77 153.784 206.202 153.112 206.202ZM149.32 182.378H142.024C140.248 182.378 139.36 183.842 139.36 186.746V192.002C139.36 194.906 140.248 196.37 142.024 196.37H149.32C151.12 196.37 152.032 194.906 152.032 191.954V186.794C152.032 183.842 151.12 182.378 149.32 182.378ZM154 186.818V191.93C154 196.61 152.464 198.962 149.392 198.962H141.976C138.928 198.962 137.392 196.658 137.392 192.05V186.698C137.392 182.09 138.928 179.786 141.976 179.786H149.392C152.464 179.786 154 182.138 154 186.818ZM137.272 173.78C137.272 173.276 137.44 172.916 137.8 172.508L150.568 158.036H138.256C137.608 158.036 137.272 157.604 137.272 156.74C137.272 155.876 137.608 155.444 138.256 155.444H153.112C153.784 155.444 154.12 155.9 154.12 156.812C154.12 157.34 153.928 157.676 153.568 158.084L140.8 172.532H153.112C153.784 172.532 154.12 172.988 154.12 173.852C154.12 174.692 153.784 175.124 153.112 175.124H138.304C137.608 175.124 137.272 174.668 137.272 173.78Z" fill="#F5F5F5"/>
<path d="M1095.74 216.609H1107.2V211.149C1107.2 210.489 1107.46 210.149 1108.02 210.149C1108.56 210.149 1108.84 210.489 1108.84 211.149V224.209C1108.84 224.889 1108.56 225.229 1108.04 225.229C1107.48 225.229 1107.2 224.889 1107.2 224.209V218.769H1095.74C1095.18 218.769 1094.9 218.409 1094.9 217.709C1094.9 216.969 1095.18 216.609 1095.74 216.609ZM1095.1 241.798L1100.42 230.398H1095.74C1095.18 230.398 1094.9 230.018 1094.9 229.298C1094.9 228.598 1095.18 228.238 1095.74 228.238H1108.14C1108.6 228.238 1108.84 228.558 1108.84 229.158V238.558C1108.84 242.698 1107.72 244.778 1105.44 244.778H1103.96C1101.74 244.778 1100.62 242.698 1100.62 238.558V233.778L1096.54 243.058C1096.36 243.478 1096.12 243.658 1095.76 243.658C1095.24 243.658 1094.9 243.258 1094.9 242.558C1094.9 242.258 1094.94 242.118 1095.1 241.798ZM1107.06 230.398H1102.14V238.618C1102.14 241.298 1102.74 242.618 1103.96 242.618H1105.4C1106.6 242.618 1107.2 241.298 1107.2 238.638V230.558C1107.2 230.458 1107.16 230.398 1107.06 230.398ZM1107.4 262.779L1101.06 256.239H1095.74C1095.18 256.239 1094.9 255.879 1094.9 255.159C1094.9 254.439 1095.18 254.059 1095.74 254.059H1101.06L1107.4 247.519C1107.62 247.279 1107.78 247.159 1108.08 247.159C1108.62 247.159 1108.94 247.599 1108.94 248.279C1108.94 248.699 1108.8 248.939 1108.52 249.219L1102.64 255.159L1108.54 261.119C1108.8 261.379 1108.94 261.619 1108.94 262.079C1108.94 262.699 1108.62 263.139 1108.08 263.139C1107.78 263.139 1107.6 262.999 1107.4 262.779ZM1108.94 273.829C1108.94 274.229 1108.74 274.589 1108.36 274.829L1097.26 281.949L1108.36 289.089C1108.74 289.329 1108.94 289.669 1108.94 290.109C1108.94 290.789 1108.64 291.229 1108.12 291.229C1107.92 291.229 1107.76 291.169 1107.48 290.989L1095.44 283.069C1095.06 282.829 1094.9 282.409 1094.9 281.989C1094.9 281.529 1095.08 281.149 1095.44 280.909L1107.5 272.949C1107.76 272.769 1107.92 272.729 1108.12 272.729C1108.64 272.729 1108.94 273.149 1108.94 273.829ZM1095.74 294.312H1108.1C1108.66 294.312 1108.94 294.692 1108.94 295.432C1108.94 296.112 1108.66 296.472 1108.1 296.472H1095.74C1095.18 296.472 1094.9 296.092 1094.9 295.372C1094.9 294.672 1095.18 294.312 1095.74 294.312ZM1095.1 313.966L1100.42 302.566H1095.74C1095.18 302.566 1094.9 302.186 1094.9 301.466C1094.9 300.766 1095.18 300.406 1095.74 300.406H1108.14C1108.6 300.406 1108.84 300.726 1108.84 301.326V310.726C1108.84 314.866 1107.72 316.946 1105.44 316.946H1103.96C1101.74 316.946 1100.62 314.866 1100.62 310.726V305.946L1096.54 315.226C1096.36 315.646 1096.12 315.826 1095.76 315.826C1095.24 315.826 1094.9 315.426 1094.9 314.726C1094.9 314.426 1094.94 314.286 1095.1 313.966ZM1107.06 302.566H1102.14V310.786C1102.14 313.466 1102.74 314.786 1103.96 314.786H1105.4C1106.6 314.786 1107.2 313.466 1107.2 310.806V302.726C1107.2 302.626 1107.16 302.566 1107.06 302.566ZM1095.74 325.906H1107.2V320.446C1107.2 319.786 1107.46 319.446 1108.02 319.446C1108.56 319.446 1108.84 319.786 1108.84 320.446V333.506C1108.84 334.186 1108.56 334.526 1108.04 334.526C1107.48 334.526 1107.2 334.186 1107.2 333.506V328.066H1095.74C1095.18 328.066 1094.9 327.706 1094.9 327.006C1094.9 326.266 1095.18 325.906 1095.74 325.906ZM1095 347.915V343.355C1095 339.455 1096.3 337.495 1098.92 337.495H1108.1C1108.66 337.495 1108.94 337.855 1108.94 338.575C1108.94 339.295 1108.66 339.655 1108.1 339.655H1098.98C1097.42 339.655 1096.64 340.915 1096.64 343.455V347.815C1096.64 350.355 1097.42 351.595 1098.98 351.595H1108.1C1108.66 351.595 1108.94 351.975 1108.94 352.695C1108.94 353.415 1108.66 353.775 1108.1 353.775H1098.92C1096.3 353.775 1095 351.795 1095 347.915ZM1095.48 372.586L1098.7 370.506V360.406L1095.48 358.346C1095.08 358.086 1094.9 357.726 1094.9 357.306C1094.9 356.646 1095.2 356.206 1095.72 356.206C1095.92 356.206 1096.08 356.246 1096.34 356.426L1108.4 364.346C1108.76 364.586 1108.92 365.006 1108.94 365.446C1108.94 365.886 1108.76 366.266 1108.4 366.506L1096.36 374.446C1096.1 374.646 1095.92 374.706 1095.72 374.706C1095.2 374.706 1094.9 374.266 1094.9 373.606C1094.9 373.206 1095.08 372.846 1095.48 372.586ZM1106.56 365.446L1100.24 361.406V369.526L1106.56 365.446ZM1095 391.384V383.004C1095 379.104 1096.3 377.144 1098.92 377.144H1108.1C1108.66 377.144 1108.94 377.504 1108.94 378.204C1108.94 378.924 1108.66 379.304 1108.1 379.304H1098.98C1097.42 379.304 1096.64 380.544 1096.64 383.104V391.384C1096.64 392.044 1096.36 392.384 1095.82 392.384C1095.28 392.384 1095 392.044 1095 391.384ZM1095 416.867V408.647C1095 404.747 1096.28 402.787 1098.84 402.787H1105.06C1107.58 402.787 1108.84 404.707 1108.84 408.547V411.407C1108.84 412.067 1108.56 412.407 1108.02 412.407C1107.48 412.407 1107.2 412.067 1107.2 411.407V408.587C1107.2 406.167 1106.48 404.947 1105.02 404.947H1102.76V416.867C1102.76 417.507 1102.5 417.827 1101.98 417.827C1101.46 417.827 1101.2 417.507 1101.2 416.867V404.947H1098.9C1097.4 404.947 1096.64 406.187 1096.64 408.747V416.867C1096.64 417.547 1096.36 417.887 1095.82 417.887C1095.28 417.887 1095 417.547 1095 416.867ZM1095.26 435.221L1100.66 429.061L1095.24 422.921C1094.96 422.601 1094.9 422.301 1094.9 422.001C1094.9 421.341 1095.2 420.921 1095.68 420.921C1096 420.921 1096.16 421.021 1096.46 421.361L1101.96 427.581L1107.32 421.481C1107.64 421.101 1107.86 421.041 1108.08 421.041C1108.62 421.041 1108.94 421.461 1108.94 422.141C1108.94 422.481 1108.86 422.741 1108.58 423.061L1103.22 429.141L1108.58 435.241C1108.84 435.541 1108.94 435.801 1108.94 436.161C1108.94 436.781 1108.64 437.221 1108.16 437.221C1107.86 437.221 1107.64 437.081 1107.38 436.781L1101.92 430.621L1096.5 436.801C1096.14 437.201 1095.94 437.261 1095.76 437.261C1095.22 437.261 1094.9 436.821 1094.9 436.141C1094.9 435.801 1094.98 435.541 1095.26 435.221ZM1095.74 455.116H1101.02V442.956H1095.74C1095.18 442.956 1094.9 442.596 1094.9 441.856C1094.9 441.156 1095.18 440.796 1095.74 440.796H1108.1C1108.66 440.796 1108.94 441.176 1108.94 441.916C1108.94 442.616 1108.66 442.956 1108.1 442.956H1102.66V455.116H1108.12C1108.66 455.116 1108.94 455.476 1108.94 456.176C1108.94 456.896 1108.66 457.276 1108.12 457.276H1095.74C1095.18 457.276 1094.9 456.896 1094.9 456.176C1094.9 455.476 1095.18 455.116 1095.74 455.116ZM1095.74 461.246H1108.1C1108.66 461.246 1108.94 461.626 1108.94 462.366C1108.94 463.046 1108.66 463.406 1108.1 463.406H1095.74C1095.18 463.406 1094.9 463.026 1094.9 462.306C1094.9 461.606 1095.18 461.246 1095.74 461.246ZM1099.44 483.719H1098.04C1096 483.719 1095 481.999 1095 478.579V468.299C1095 467.679 1095.26 467.339 1095.78 467.339H1108.06C1108.58 467.339 1108.84 467.679 1108.84 468.299V478.259C1108.84 481.739 1107.74 483.499 1105.54 483.499H1104.4C1103.34 483.499 1102.56 482.939 1102.02 481.839C1101.46 483.079 1100.6 483.719 1099.44 483.719ZM1098.22 481.559H1099.52C1100.64 481.559 1101.2 480.539 1101.2 478.499V469.499H1096.78C1096.68 469.499 1096.64 469.559 1096.64 469.659V478.499C1096.64 480.539 1097.16 481.559 1098.22 481.559ZM1104.36 481.359H1105.48C1106.62 481.359 1107.2 480.339 1107.2 478.279V469.659C1107.2 469.559 1107.16 469.499 1107.06 469.499H1102.74V478.439C1102.74 480.379 1103.28 481.359 1104.36 481.359ZM1095.74 487.359H1108.1C1108.66 487.359 1108.94 487.739 1108.94 488.479C1108.94 489.159 1108.66 489.519 1108.1 489.519H1095.74C1095.18 489.519 1094.9 489.139 1094.9 488.419C1094.9 487.719 1095.18 487.359 1095.74 487.359ZM1095.74 498.953H1107.2V493.493C1107.2 492.833 1107.46 492.493 1108.02 492.493C1108.56 492.493 1108.84 492.833 1108.84 493.493V506.553C1108.84 507.233 1108.56 507.573 1108.04 507.573C1107.48 507.573 1107.2 507.233 1107.2 506.553V501.113H1095.74C1095.18 501.113 1094.9 500.753 1094.9 500.053C1094.9 499.313 1095.18 498.953 1095.74 498.953ZM1095.74 510.582H1108.1C1108.66 510.582 1108.94 510.962 1108.94 511.702C1108.94 512.382 1108.66 512.742 1108.1 512.742H1095.74C1095.18 512.742 1094.9 512.362 1094.9 511.642C1094.9 510.942 1095.18 510.582 1095.74 510.582ZM1098.9 530.435H1104.98C1106.46 530.435 1107.2 529.215 1107.2 526.795V522.415C1107.2 519.995 1106.46 518.775 1104.98 518.775H1098.9C1097.4 518.775 1096.64 519.995 1096.64 522.455V526.755C1096.64 529.215 1097.4 530.435 1098.9 530.435ZM1095 526.735V522.475C1095 518.575 1096.28 516.615 1098.84 516.615H1105.02C1107.56 516.615 1108.84 518.535 1108.84 522.375V526.835C1108.84 530.675 1107.56 532.595 1105.02 532.595H1098.84C1096.28 532.595 1095 530.635 1095 526.735ZM1108.94 537.6C1108.94 538.02 1108.8 538.32 1108.5 538.66L1097.86 550.72H1108.12C1108.66 550.72 1108.94 551.08 1108.94 551.8C1108.94 552.52 1108.66 552.88 1108.12 552.88H1095.74C1095.18 552.88 1094.9 552.5 1094.9 551.74C1094.9 551.3 1095.06 551.02 1095.36 550.68L1106 538.64H1095.74C1095.18 538.64 1094.9 538.26 1094.9 537.54C1094.9 536.84 1095.18 536.48 1095.74 536.48H1108.08C1108.66 536.48 1108.94 536.86 1108.94 537.6Z" fill="#F5F5F5"/>
<path d="M851.813 559.592V568.76H856.181C856.709 568.76 856.981 568.968 856.981 569.416C856.981 569.848 856.709 570.072 856.181 570.072H845.733C845.189 570.072 844.917 569.848 844.917 569.432C844.917 568.984 845.189 568.76 845.733 568.76H850.085V559.592C850.085 559.144 850.373 558.92 850.933 558.92C851.525 558.92 851.813 559.144 851.813 559.592ZM831.662 559.08L840.782 563.336V559.592C840.782 559.144 841.086 558.92 841.662 558.92C842.222 558.92 842.51 559.144 842.51 559.592V569.512C842.51 569.88 842.254 570.072 841.774 570.072H834.254C830.942 570.072 829.278 569.176 829.278 567.352V566.168C829.278 564.392 830.942 563.496 834.254 563.496H838.078L830.654 560.232C830.318 560.088 830.174 559.896 830.174 559.608C830.174 559.192 830.494 558.92 831.054 558.92C831.294 558.92 831.406 558.952 831.662 559.08ZM840.782 568.648V564.712H834.206C832.062 564.712 831.006 565.192 831.006 566.168V567.32C831.006 568.28 832.062 568.76 834.19 568.76H840.654C840.734 568.76 840.782 568.728 840.782 568.648ZM814.877 568.92L820.109 563.848V559.592C820.109 559.144 820.397 558.92 820.973 558.92C821.549 558.92 821.853 559.144 821.853 559.592V563.848L827.085 568.92C827.277 569.096 827.373 569.224 827.373 569.464C827.373 569.896 827.021 570.152 826.477 570.152C826.141 570.152 825.949 570.04 825.725 569.816L820.973 565.112L816.205 569.832C815.997 570.04 815.805 570.152 815.437 570.152C814.941 570.152 814.589 569.896 814.589 569.464C814.589 569.224 814.701 569.08 814.877 568.92ZM806.036 570.152C805.716 570.152 805.428 569.992 805.236 569.688L799.54 560.808L793.828 569.688C793.636 569.992 793.364 570.152 793.012 570.152C792.468 570.152 792.116 569.912 792.116 569.496C792.116 569.336 792.164 569.208 792.308 568.984L798.644 559.352C798.836 559.048 799.172 558.92 799.508 558.92C799.876 558.92 800.18 559.064 800.372 559.352L806.74 569C806.884 569.208 806.916 569.336 806.916 569.496C806.916 569.912 806.58 570.152 806.036 570.152ZM789.65 559.592V569.48C789.65 569.928 789.346 570.152 788.754 570.152C788.21 570.152 787.922 569.928 787.922 569.48V559.592C787.922 559.144 788.226 558.92 788.802 558.92C789.362 558.92 789.65 559.144 789.65 559.592ZM773.927 559.08L783.047 563.336V559.592C783.047 559.144 783.351 558.92 783.927 558.92C784.487 558.92 784.775 559.144 784.775 559.592V569.512C784.775 569.88 784.519 570.072 784.039 570.072H776.519C773.207 570.072 771.543 569.176 771.543 567.352V566.168C771.543 564.392 773.207 563.496 776.519 563.496H780.343L772.919 560.232C772.583 560.088 772.439 559.896 772.439 559.608C772.439 559.192 772.759 558.92 773.319 558.92C773.559 558.92 773.671 558.952 773.927 559.08ZM783.047 568.648V564.712H776.471C774.327 564.712 773.271 565.192 773.271 566.168V567.32C773.271 568.28 774.327 568.76 776.455 568.76H782.919C782.999 568.76 783.047 568.728 783.047 568.648ZM764.375 559.592V568.76H768.743C769.271 568.76 769.543 568.968 769.543 569.416C769.543 569.848 769.271 570.072 768.743 570.072H758.295C757.751 570.072 757.479 569.848 757.479 569.432C757.479 568.984 757.751 568.76 758.295 568.76H762.647V559.592C762.647 559.144 762.935 558.92 763.495 558.92C764.087 558.92 764.375 559.144 764.375 559.592ZM746.768 559H750.416C753.536 559 755.104 560.04 755.104 562.136V569.48C755.104 569.928 754.816 570.152 754.24 570.152C753.664 570.152 753.376 569.928 753.376 569.48V562.184C753.376 560.936 752.368 560.312 750.336 560.312H746.848C744.816 560.312 743.824 560.936 743.824 562.184V569.48C743.824 569.928 743.52 570.152 742.944 570.152C742.368 570.152 742.08 569.928 742.08 569.48V562.136C742.08 560.04 743.664 559 746.768 559ZM727.031 559.384L728.695 561.96H736.775L738.423 559.384C738.631 559.064 738.919 558.92 739.255 558.92C739.783 558.92 740.135 559.16 740.135 559.576C740.135 559.736 740.103 559.864 739.959 560.072L733.623 569.72C733.431 570.008 733.095 570.136 732.743 570.152C732.391 570.152 732.087 570.008 731.895 569.72L725.543 560.088C725.383 559.88 725.335 559.736 725.335 559.576C725.335 559.16 725.687 558.92 726.215 558.92C726.535 558.92 726.823 559.064 727.031 559.384ZM732.743 568.248L735.975 563.192H729.479L732.743 568.248ZM711.993 559H718.697C721.817 559 723.385 560.04 723.385 562.136V569.48C723.385 569.928 723.097 570.152 722.537 570.152C721.961 570.152 721.657 569.928 721.657 569.48V562.184C721.657 560.936 720.665 560.312 718.617 560.312H711.993C711.465 560.312 711.193 560.088 711.193 559.656C711.193 559.224 711.465 559 711.993 559ZM691.606 559H698.182C701.302 559 702.87 560.024 702.87 562.072V567.048C702.87 569.064 701.334 570.072 698.262 570.072H695.974C695.446 570.072 695.174 569.848 695.174 569.416C695.174 568.984 695.446 568.76 695.974 568.76H698.23C700.166 568.76 701.142 568.184 701.142 567.016V565.208H691.606C691.094 565.208 690.838 565 690.838 564.584C690.838 564.168 691.094 563.96 691.606 563.96H701.142V562.12C701.142 560.92 700.15 560.312 698.102 560.312H691.606C691.062 560.312 690.79 560.088 690.79 559.656C690.79 559.224 691.062 559 691.606 559ZM676.923 559.208L681.851 563.528L686.763 559.192C687.019 558.968 687.259 558.92 687.499 558.92C688.027 558.92 688.363 559.16 688.363 559.544C688.363 559.8 688.283 559.928 688.011 560.168L683.035 564.568L687.915 568.856C688.219 569.112 688.267 569.288 688.267 569.464C688.267 569.896 687.931 570.152 687.387 570.152C687.115 570.152 686.907 570.088 686.651 569.864L681.787 565.576L676.907 569.864C676.667 570.072 676.459 570.152 676.171 570.152C675.675 570.152 675.323 569.912 675.323 569.528C675.323 569.288 675.435 569.112 675.675 568.904L680.603 564.536L675.659 560.2C675.339 559.912 675.291 559.752 675.291 559.608C675.291 559.176 675.643 558.92 676.187 558.92C676.459 558.92 676.667 558.984 676.923 559.208ZM661.007 559.592V563.816H670.735V559.592C670.735 559.144 671.023 558.92 671.615 558.92C672.175 558.92 672.463 559.144 672.463 559.592V569.48C672.463 569.928 672.159 570.152 671.567 570.152C671.007 570.152 670.735 569.928 670.735 569.48V565.128H661.007V569.496C661.007 569.928 660.719 570.152 660.159 570.152C659.583 570.152 659.279 569.928 659.279 569.496V559.592C659.279 559.144 659.583 558.92 660.159 558.92C660.719 558.92 661.007 559.144 661.007 559.592ZM656.103 559.592V569.48C656.103 569.928 655.799 570.152 655.207 570.152C654.663 570.152 654.375 569.928 654.375 569.48V559.592C654.375 559.144 654.679 558.92 655.255 558.92C655.815 558.92 656.103 559.144 656.103 559.592ZM638.124 562.552V561.432C638.124 559.8 639.5 559 642.236 559H650.461C650.956 559 651.228 559.208 651.228 559.624V569.448C651.228 569.864 650.956 570.072 650.461 570.072H642.492C639.708 570.072 638.3 569.192 638.3 567.432V566.52C638.3 565.672 638.748 565.048 639.628 564.616C638.636 564.168 638.124 563.48 638.124 562.552ZM639.852 561.576V562.616C639.852 563.512 640.668 563.96 642.3 563.96H649.5V560.424C649.5 560.344 649.452 560.312 649.372 560.312H642.3C640.668 560.312 639.852 560.728 639.852 561.576ZM640.012 566.488V567.384C640.012 568.296 640.828 568.76 642.476 568.76H649.372C649.452 568.76 649.5 568.728 649.5 568.648V565.192H642.348C640.796 565.192 640.012 565.624 640.012 566.488ZM635.213 559.592V569.48C635.213 569.928 634.909 570.152 634.317 570.152C633.773 570.152 633.485 569.928 633.485 569.48V559.592C633.485 559.144 633.789 558.92 634.365 558.92C634.925 558.92 635.213 559.144 635.213 559.592ZM625.938 559.592V568.76H630.306C630.834 568.76 631.106 568.968 631.106 569.416C631.106 569.848 630.834 570.072 630.306 570.072H619.858C619.314 570.072 619.042 569.848 619.042 569.432C619.042 568.984 619.314 568.76 619.858 568.76H624.21V559.592C624.21 559.144 624.498 558.92 625.058 558.92C625.65 558.92 625.938 559.144 625.938 559.592ZM616.635 559.592V569.48C616.635 569.928 616.331 570.152 615.739 570.152C615.195 570.152 614.907 569.928 614.907 569.48V559.592C614.907 559.144 615.211 558.92 615.787 558.92C616.347 558.92 616.635 559.144 616.635 559.592ZM600.752 562.12V566.984C600.752 568.168 601.728 568.76 603.664 568.76H607.168C609.104 568.76 610.08 568.168 610.08 566.984V562.12C610.08 560.92 609.104 560.312 607.136 560.312H603.696C601.728 560.312 600.752 560.92 600.752 562.12ZM603.712 559H607.12C610.24 559 611.808 560.024 611.808 562.072V567.016C611.808 569.048 610.272 570.072 607.2 570.072H603.632C600.56 570.072 599.024 569.048 599.024 567.016V562.072C599.024 560.024 600.592 559 603.712 559ZM595.02 570.152C594.684 570.152 594.444 570.04 594.172 569.8L584.524 561.288V569.496C584.524 569.928 584.236 570.152 583.66 570.152C583.084 570.152 582.796 569.928 582.796 569.496V559.592C582.796 559.144 583.1 558.92 583.708 558.92C584.06 558.92 584.284 559.048 584.556 559.288L594.188 567.8V559.592C594.188 559.144 594.492 558.92 595.068 558.92C595.628 558.92 595.916 559.144 595.916 559.592V569.464C595.916 569.928 595.612 570.152 595.02 570.152Z" fill="#F5F5F5"/>
<rect x="620" y="300" width="200" height="200" rx="100" fill="#7E2424"/>
<path d="M660.445 407.612V393.86H653.893C653.101 393.86 652.693 393.548 652.693 392.876C652.693 392.228 653.101 391.892 653.893 391.892H669.565C670.381 391.892 670.789 392.228 670.789 392.852C670.789 393.524 670.381 393.86 669.565 393.86H663.037V407.612C663.037 408.284 662.605 408.62 661.765 408.62C660.877 408.62 660.445 408.284 660.445 407.612ZM688.344 403.46H674.688V404.924C674.688 406.052 675.792 406.628 678.024 406.628H681.576C682.368 406.628 682.776 406.94 682.776 407.564C682.776 408.188 682.368 408.5 681.576 408.5H678.024C674.136 408.5 672.168 407.324 672.168 404.948V400.244C672.168 397.988 673.92 396.836 677.4 396.836H684.336C687.744 396.836 689.448 397.868 689.448 399.908V402.596C689.448 403.172 689.064 403.46 688.344 403.46ZM674.688 400.388V401.804H686.736C686.88 401.804 686.928 401.732 686.928 401.636V400.388C686.928 399.284 686.016 398.732 684.144 398.732H677.544C675.624 398.732 674.688 399.284 674.688 400.388ZM693.452 407.612V392.444C693.452 391.796 693.884 391.436 694.724 391.436C695.564 391.436 695.996 391.796 695.996 392.444V407.612C695.996 408.284 695.564 408.62 694.724 408.62C693.884 408.62 693.452 408.284 693.452 407.612ZM716.657 403.46H703.001V404.924C703.001 406.052 704.105 406.628 706.337 406.628H709.889C710.681 406.628 711.089 406.94 711.089 407.564C711.089 408.188 710.681 408.5 709.889 408.5H706.337C702.449 408.5 700.481 407.324 700.481 404.948V400.244C700.481 397.988 702.233 396.836 705.713 396.836H712.649C716.057 396.836 717.761 397.868 717.761 399.908V402.596C717.761 403.172 717.377 403.46 716.657 403.46ZM703.001 400.388V401.804H715.049C715.193 401.804 715.241 401.732 715.241 401.636V400.388C715.241 399.284 714.329 398.732 712.457 398.732H705.857C703.937 398.732 703.001 399.284 703.001 400.388ZM732.733 408.5H724.261V411.668C724.261 412.34 723.829 412.676 722.989 412.676C722.149 412.676 721.717 412.34 721.717 411.668V400.652C721.717 398.108 723.781 396.836 727.909 396.836H732.733C736.861 396.836 738.925 398.108 738.925 400.652V404.708C738.925 407.228 736.861 408.5 732.733 408.5ZM724.261 400.628V406.556H732.805C735.181 406.556 736.357 405.932 736.357 404.732V400.628C736.357 399.404 735.181 398.804 732.805 398.804H727.813C725.461 398.804 724.261 399.404 724.261 400.628ZM754.173 408.5H749.541C745.389 408.5 743.325 407.228 743.325 404.708V400.652C743.325 398.108 745.389 396.836 749.541 396.836H754.173C758.325 396.836 760.389 398.108 760.389 400.652V404.708C760.389 407.228 758.325 408.5 754.173 408.5ZM757.821 404.732V400.628C757.821 399.404 756.621 398.804 754.245 398.804H749.445C747.093 398.804 745.893 399.404 745.893 400.628V404.732C745.893 405.932 747.093 406.556 749.445 406.556H754.245C756.621 406.556 757.821 405.932 757.821 404.732ZM764.819 407.612V400.652C764.819 398.108 766.883 396.836 771.011 396.836H772.859C773.675 396.836 774.083 397.172 774.083 397.82C774.083 398.468 773.675 398.804 772.859 398.804H770.915C768.562 398.804 767.363 399.404 767.363 400.604V407.612C767.363 408.284 766.931 408.62 766.09 408.62C765.251 408.62 764.819 408.26 764.819 407.612ZM785.866 398.804H781.738V407.612C781.738 408.284 781.306 408.62 780.49 408.62C779.626 408.62 779.194 408.284 779.194 407.612V398.804H778.21C777.442 398.804 777.034 398.492 777.034 397.868C777.034 397.244 777.442 396.932 778.21 396.932H779.194V394.724C779.194 394.076 779.602 393.716 780.442 393.716C781.306 393.716 781.738 394.076 781.738 394.724V396.932H785.866C786.658 396.932 787.066 397.244 787.066 397.868C787.066 398.492 786.658 398.804 785.866 398.804Z" fill="#F5F5F5"/>
</svg>
