<svg width="39" height="12" viewBox="0 0 39 12" fill="none" xmlns="http://www.w3.org/2000/svg">
<path d="M0.916992 0.499999H2.11699V9.86H6.45199V11H0.916992V0.499999ZM7.12324 5.6C7.12324 4.8 7.24324 4.08 7.48324 3.44C7.72324 2.8 8.05824 2.25 8.48824 1.79C8.91824 1.33 9.42824 0.98 10.0182 0.74C10.6082 0.489999 11.2532 0.364999 11.9532 0.364999H12.1032C12.8032 0.364999 13.4482 0.489999 14.0382 0.74C14.6282 0.98 15.1382 1.33 15.5682 1.79C15.9982 2.25 16.3332 2.8 16.5732 3.44C16.8132 4.08 16.9332 4.8 16.9332 5.6V5.9C16.9332 6.69 16.8132 7.41 16.5732 8.06C16.3332 8.7 15.9982 9.25 15.5682 9.71C15.1382 10.17 14.6282 10.525 14.0382 10.775C13.4482 11.015 12.8032 11.135 12.1032 11.135H11.9532C11.2532 11.135 10.6082 11.015 10.0182 10.775C9.42824 10.525 8.91824 10.17 8.48824 9.71C8.05824 9.25 7.72324 8.7 7.48324 8.06C7.24324 7.41 7.12324 6.69 7.12324 5.9V5.6ZM8.38324 5.9C8.38324 6.51 8.47324 7.07 8.65324 7.58C8.84324 8.08 9.09824 8.505 9.41824 8.855C9.73824 9.205 10.1132 9.48 10.5432 9.68C10.9832 9.87 11.4582 9.965 11.9682 9.965H12.0882C12.5982 9.965 13.0682 9.87 13.4982 9.68C13.9382 9.48 14.3182 9.205 14.6382 8.855C14.9582 8.505 15.2082 8.08 15.3882 7.58C15.5782 7.07 15.6732 6.51 15.6732 5.9V5.6C15.6732 4.98 15.5782 4.42 15.3882 3.92C15.2082 3.42 14.9582 2.995 14.6382 2.645C14.3182 2.295 13.9382 2.025 13.4982 1.835C13.0682 1.635 12.5982 1.535 12.0882 1.535H11.9682C11.4582 1.535 10.9832 1.635 10.5432 1.835C10.1132 2.025 9.73824 2.295 9.41824 2.645C9.09824 2.995 8.84324 3.42 8.65324 3.92C8.47324 4.42 8.38324 4.98 8.38324 5.6V5.9ZM23.0404 11.12C22.3204 11.12 21.6654 10.995 21.0754 10.745C20.4954 10.495 19.9954 10.14 19.5754 9.68C19.1654 9.22 18.8454 8.67 18.6154 8.03C18.3954 7.39 18.2854 6.675 18.2854 5.885V5.6C18.2854 4.82 18.4004 4.11 18.6304 3.47C18.8704 2.82 19.1954 2.27 19.6054 1.82C20.0254 1.36 20.5254 1.005 21.1054 0.755C21.6854 0.494999 22.3204 0.364999 23.0104 0.364999H23.1604C23.5504 0.364999 23.9304 0.419999 24.3004 0.53C24.6804 0.63 25.0354 0.78 25.3654 0.979999C25.6954 1.17 25.9954 1.405 26.2654 1.685C26.5454 1.955 26.7804 2.265 26.9704 2.615L25.9204 3.26C25.6404 2.72 25.2704 2.3 24.8104 2C24.3504 1.69 23.7904 1.535 23.1304 1.535H23.0104C22.4904 1.535 22.0154 1.635 21.5854 1.835C21.1654 2.025 20.8004 2.295 20.4904 2.645C20.1904 2.995 19.9554 3.42 19.7854 3.92C19.6254 4.42 19.5454 4.98 19.5454 5.6V5.9C19.5454 6.51 19.6304 7.065 19.8004 7.565C19.9704 8.065 20.2054 8.49 20.5054 8.84C20.8154 9.19 21.1854 9.465 21.6154 9.665C22.0554 9.855 22.5404 9.95 23.0704 9.95H23.1754C23.6154 9.95 24.0154 9.88 24.3754 9.74C24.7454 9.6 25.0604 9.405 25.3204 9.155C25.5904 8.895 25.7954 8.59 25.9354 8.24C26.0854 7.88 26.1604 7.485 26.1604 7.055V6.77H23.4154V5.63H27.3454V11H26.4304C26.3804 10.86 26.3304 10.68 26.2804 10.46C26.2404 10.23 26.2104 10.01 26.1904 9.8C25.8504 10.2 25.4054 10.52 24.8554 10.76C24.3054 11 23.7254 11.12 23.1154 11.12H23.0404ZM29.0959 5.6C29.0959 4.8 29.2159 4.08 29.4559 3.44C29.6959 2.8 30.0309 2.25 30.4609 1.79C30.8909 1.33 31.4009 0.98 31.9909 0.74C32.5809 0.489999 33.2259 0.364999 33.9259 0.364999H34.0759C34.7759 0.364999 35.4209 0.489999 36.0109 0.74C36.6009 0.98 37.1109 1.33 37.5409 1.79C37.9709 2.25 38.3059 2.8 38.5459 3.44C38.7859 4.08 38.9059 4.8 38.9059 5.6V5.9C38.9059 6.69 38.7859 7.41 38.5459 8.06C38.3059 8.7 37.9709 9.25 37.5409 9.71C37.1109 10.17 36.6009 10.525 36.0109 10.775C35.4209 11.015 34.7759 11.135 34.0759 11.135H33.9259C33.2259 11.135 32.5809 11.015 31.9909 10.775C31.4009 10.525 30.8909 10.17 30.4609 9.71C30.0309 9.25 29.6959 8.7 29.4559 8.06C29.2159 7.41 29.0959 6.69 29.0959 5.9V5.6ZM30.3559 5.9C30.3559 6.51 30.4459 7.07 30.6259 7.58C30.8159 8.08 31.0709 8.505 31.3909 8.855C31.7109 9.205 32.0859 9.48 32.5159 9.68C32.9559 9.87 33.4309 9.965 33.9409 9.965H34.0609C34.5709 9.965 35.0409 9.87 35.4709 9.68C35.9109 9.48 36.2909 9.205 36.6109 8.855C36.9309 8.505 37.1809 8.08 37.3609 7.58C37.5509 7.07 37.6459 6.51 37.6459 5.9V5.6C37.6459 4.98 37.5509 4.42 37.3609 3.92C37.1809 3.42 36.9309 2.995 36.6109 2.645C36.2909 2.295 35.9109 2.025 35.4709 1.835C35.0409 1.635 34.5709 1.535 34.0609 1.535H33.9409C33.4309 1.535 32.9559 1.635 32.5159 1.835C32.0859 2.025 31.7109 2.295 31.3909 2.645C31.0709 2.995 30.8159 3.42 30.6259 3.92C30.4459 4.42 30.3559 4.98 30.3559 5.6V5.9Z" fill="#282323"/>
</svg>
