<svg width="66" height="66" viewBox="0 0 66 66" fill="none" xmlns="http://www.w3.org/2000/svg">
<rect x="0.5" y="0.5" width="65" height="65" rx="9.5" stroke="#F5F5F5"/>
<path d="M18.8574 48.2747V13.7661C21.4974 14.1433 26.8906 18.8575 27.3431 34.6975C25.4574 35.4518 22.8174 37.5261 27.3431 39.789C28.8517 40.1661 32.0951 41.2598 33.0003 42.6175C33.9054 41.2598 37.1489 40.1661 38.6574 39.789C43.1831 37.5261 40.5431 35.4518 38.6574 34.6975C39.11 18.8575 44.5031 14.1433 47.1431 13.7661V48.2747H18.8574Z" stroke="#F5F5F5" stroke-width="0.5"/>
<path d="M46.5762 37.5259H40.919M25.079 37.5259H19.4219M32.999 56.1944C28.9259 52.1213 27.5304 49.2173 27.3419 47.7087C26.8893 44.0882 28.2847 40.543 29.039 39.223C31.8676 33.0002 31.8676 30.1716 31.8676 27.343C30.0573 14.671 31.8676 11.503 32.999 10.3716C34.1304 11.503 35.9407 14.671 34.1304 27.343C34.1304 30.1716 34.1304 33.0002 36.959 39.223C37.7133 40.543 39.1087 43.5224 38.6562 47.143C38.4676 48.6516 37.0722 52.1213 32.999 56.1944ZM32.999 56.1944V42.0516" stroke="#F5F5F5" stroke-width="0.5"/>
</svg>
