<svg width="29" height="29" viewBox="0 0 29 29" fill="none" xmlns="http://www.w3.org/2000/svg">
<path d="M20.542 2.41675H8.45866C5.12194 2.41675 2.41699 5.12169 2.41699 8.45841V20.5417C2.41699 23.8785 5.12194 26.5834 8.45866 26.5834H20.542C23.8787 26.5834 26.5837 23.8785 26.5837 20.5417V8.45841C26.5837 5.12169 23.8787 2.41675 20.542 2.41675Z" stroke="#282323" stroke-width="1.5" stroke-linecap="round" stroke-linejoin="round"/>
<path d="M19.3331 13.7389C19.4823 14.7445 19.3105 15.7715 18.8423 16.6739C18.374 17.5763 17.6332 18.3081 16.7251 18.7651C15.817 19.2222 14.7879 19.3813 13.7842 19.2198C12.7805 19.0583 11.8533 18.5844 11.1344 17.8655C10.4155 17.1467 9.94165 16.2194 9.78014 15.2157C9.61863 14.212 9.77772 13.1829 10.2348 12.2748C10.6919 11.3667 11.4236 10.6259 12.326 10.1577C13.2284 9.68943 14.2554 9.51766 15.2611 9.66679C16.2868 9.8189 17.2365 10.2969 17.9698 11.0302C18.703 11.7634 19.181 12.7131 19.3331 13.7389Z" stroke="#282323" stroke-width="1.5" stroke-linecap="round" stroke-linejoin="round"/>
<path d="M21.1455 7.85425H21.1576" stroke="#282323" stroke-width="1.5" stroke-linecap="round" stroke-linejoin="round"/>
</svg>
