<svg width="29" height="29" viewBox="0 0 29 29" fill="none" xmlns="http://www.w3.org/2000/svg">
<path d="M14.5003 22.9584C11.7212 22.9584 6.76699 22.7167 4.71283 22.2334C3.86699 21.9917 3.26283 21.3876 3.02116 20.5417C2.65866 19.2126 2.41699 16.4334 2.41699 14.5001C2.41699 12.5667 2.65866 9.78758 3.02116 8.45841C3.26283 7.61258 3.86699 7.00841 4.71283 6.76675C6.76699 6.28341 11.7212 6.04175 14.5003 6.04175C17.2795 6.04175 22.2337 6.28341 24.2878 6.76675C25.1337 7.00841 25.7378 7.61258 25.9795 8.45841C26.342 9.78758 26.5837 12.5667 26.5837 14.5001C26.5837 16.4334 26.342 19.2126 25.9795 20.5417C25.7378 21.3876 25.1337 21.9917 24.2878 22.2334C22.2337 22.7167 17.2795 22.9584 14.5003 22.9584V22.9584Z" stroke="#282323" stroke-width="1.5" stroke-linecap="round" stroke-linejoin="round"/>
<path d="M12.083 18.125L18.1247 14.5L12.083 10.875V18.125Z" stroke="#282323" stroke-width="1.5" stroke-linecap="round" stroke-linejoin="round"/>
</svg>
