<svg width="60" height="60" viewBox="0 0 60 60" fill="none" xmlns="http://www.w3.org/2000/svg">
<path d="M5.54714 51.6888H0.631065C0.0623274 51.6888 0 52.0856 0 52.2563V59.3556C0 59.5945 0.0895957 59.9998 0.705079 59.9998C1.32056 59.9998 1.42964 59.5945 1.42964 59.3556V56.9322L7.17155 59.8675C7.26504 59.9187 7.33906 59.9528 7.40528 59.9699C7.4715 59.987 7.54552 59.9998 7.63511 59.9998C7.84936 59.9998 8.02466 59.9443 8.15321 59.8334C8.28955 59.7139 8.35967 59.5475 8.35967 59.3428C8.35967 59.1593 8.28955 58.9033 7.95454 58.7455L3.75912 56.7232H5.54325C7.79872 56.7232 8.94399 56.0235 8.94399 54.6454V53.7964C8.94399 52.3971 7.79872 51.6846 5.54325 51.6846L5.54714 51.6888ZM7.51825 53.822V54.6454C7.51825 55.2299 6.86381 55.5243 5.57831 55.5243H1.42964V52.956H5.5861C6.86771 52.956 7.51825 53.2461 7.51825 53.822Z" fill="#1B1C1D"/>
<path d="M15.5923 54.0483H12.5694C10.9567 54.0483 10.1387 54.6499 10.1387 55.8402V58.0843C10.1387 59.3173 11.0463 59.9445 12.8382 59.9445H14.3847C14.969 59.9445 15.0586 59.5605 15.0586 59.3344C15.0586 59.1083 14.9729 58.7243 14.3847 58.7243H12.8382C11.9734 58.7243 11.5332 58.5067 11.5332 58.0758V57.5425H17.3336C17.9023 57.5425 17.9647 57.1372 17.9647 56.9666V55.6824C17.9647 54.5987 17.1661 54.0526 15.5884 54.0526L15.5923 54.0483ZM16.5701 55.9085V56.4205H11.5371V55.9085C11.5371 55.7549 11.5371 55.2813 12.6318 55.2813H15.5066C16.5701 55.2813 16.5701 55.7506 16.5701 55.9085Z" fill="#1B1C1D"/>
<path d="M24.5657 54.0483H23.0932C22.5089 54.0483 22.4193 54.4366 22.4193 54.6712C22.4193 54.9059 22.505 55.2813 23.0932 55.2813H24.5657C25.7032 55.2813 25.7032 55.7592 25.7032 55.917L21.4104 55.9256C19.8249 55.9256 19.0225 56.4887 19.0225 57.6023V58.255C19.0225 59.3728 19.8249 59.9445 21.4104 59.9445H24.6631C26.2758 59.9445 27.0939 59.3472 27.0939 58.1654V55.9213C27.0939 54.6798 26.2447 54.0526 24.5696 54.0526L24.5657 54.0483ZM25.7032 57.0476V58.1313C25.7032 58.2763 25.7032 58.7243 24.6008 58.7243H21.4961C20.4248 58.7243 20.4248 58.3147 20.4248 58.1782V57.5809C20.4248 57.2268 20.7871 57.0476 21.4961 57.0476H25.7071H25.7032Z" fill="#1B1C1D"/>
<path d="M29.459 51.4714C28.8474 51.4714 28.7539 51.8767 28.7539 52.1157V59.3515C28.7539 59.5904 28.8435 59.9957 29.459 59.9957C30.0745 59.9957 30.1641 59.5904 30.1641 59.3515V52.1157C30.1641 51.8725 30.0745 51.4714 29.459 51.4714Z" fill="#1B1C1D"/>
<path d="M32.5732 53.9885C31.9617 53.9885 31.8682 54.3938 31.8682 54.6327V59.3514C31.8682 59.5903 31.9578 59.9956 32.5732 59.9956C33.1887 59.9956 33.2783 59.5903 33.2783 59.3514V54.6327C33.2783 54.3938 33.1887 53.9885 32.5732 53.9885Z" fill="#1B1C1D"/>
<path d="M32.5741 53.5063C32.9915 53.5063 33.3298 53.1873 33.3298 52.7938C33.3298 52.4003 32.9915 52.0813 32.5741 52.0813C32.1567 52.0813 31.8184 52.4003 31.8184 52.7938C31.8184 53.1873 32.1567 53.5063 32.5741 53.5063Z" fill="#1B1C1D"/>
<path d="M38.6169 54.0954H36.9691V53.2079C36.9691 52.969 36.8756 52.5637 36.2523 52.5637C35.629 52.5637 35.5589 52.969 35.5589 53.2079V54.0954H35.2784C34.7019 54.0954 34.6162 54.4793 34.6162 54.7055C34.6162 54.9316 34.7019 55.3155 35.2784 55.3155H35.5589V59.3516C35.5589 59.5905 35.6524 59.9958 36.2718 59.9958C36.8912 59.9958 36.9652 59.5905 36.9652 59.3516V55.3155H38.613C39.1973 55.3155 39.2869 54.9316 39.2869 54.7055C39.2869 54.4793 39.2012 54.0954 38.613 54.0954H38.6169Z" fill="#1B1C1D"/>
<path d="M41.3338 52.0771C40.6755 52.0771 40.5781 52.5251 40.5781 52.7896C40.5781 53.0542 40.6755 53.5021 41.3338 53.5021C41.9922 53.5021 42.0896 53.0542 42.0896 52.7896C42.0896 52.5251 41.9922 52.0771 41.3338 52.0771Z" fill="#1B1C1D"/>
<path d="M41.333 53.9885C40.7214 53.9885 40.6279 54.3938 40.6279 54.6327V59.3514C40.6279 59.5903 40.7175 59.9956 41.333 59.9956C41.9485 59.9956 42.0381 59.5903 42.0381 59.3514V54.6327C42.0381 54.3938 41.9446 53.9885 41.333 53.9885Z" fill="#1B1C1D"/>
<path d="M49.146 54.0483H46.1232C44.5104 54.0483 43.6924 54.6499 43.6924 55.8402V58.0843C43.6924 59.3173 44.6 59.9445 46.3958 59.9445H47.9423C48.5267 59.9445 48.6163 59.5605 48.6163 59.3344C48.6163 59.1083 48.5305 58.7243 47.9423 58.7243H46.3958C45.531 58.7243 45.0909 58.5067 45.0909 58.0758V57.5425H50.8912C51.4599 57.5425 51.5223 57.1372 51.5223 56.9666V55.6824C51.5223 54.5987 50.7237 54.0526 49.146 54.0526V54.0483ZM50.1238 55.9085V56.4205H45.0909V55.9085C45.0909 55.7549 45.0909 55.2813 46.1855 55.2813H49.0603C50.1238 55.2813 50.1238 55.7506 50.1238 55.9085Z" fill="#1B1C1D"/>
<path d="M57.5228 56.4846H55.3686C54.2195 56.4846 54.161 56.2329 54.161 56.1817V55.6782C54.161 55.4265 54.6051 55.2814 55.3803 55.2814H56.8138C57.0164 55.2814 57.1722 55.2345 57.293 55.1407C57.3865 55.0681 57.4994 54.9273 57.4994 54.6671C57.4994 54.4324 57.4098 54.0442 56.8138 54.0442H55.3803C53.6507 54.0442 52.7742 54.5946 52.7742 55.674V56.2115C52.7742 57.1501 53.6273 57.6237 55.3102 57.6237H57.4644C58.5707 57.6237 58.6019 57.8456 58.6019 57.8498V58.4898C58.6019 58.4898 58.5707 58.7159 57.4644 58.7159H53.3858C52.8015 58.7159 52.7119 59.0999 52.7119 59.326C52.7119 59.5521 52.7976 59.9361 53.3858 59.9361H57.4644C59.1472 59.9361 60.0003 59.4497 60.0003 58.4898V57.8157C60.0003 56.9325 59.1706 56.4846 57.5306 56.4846H57.5228Z" fill="#1B1C1D"/>
<path d="M21.1749 33.551H16.3952C14.1397 33.551 12.6438 33.1456 11.8998 32.3265C11.1558 31.5116 10.7818 29.8691 10.7818 27.3988V0H0.0419922V27.4031C0.0419922 33.1755 0.984695 37.3353 2.87789 39.8823C4.91132 42.6 8.33544 44.0122 13.1152 44.153L17.7664 44.1786L21.1749 33.551Z" fill="#1B1C1D"/>
<path d="M31.927 0H24.6152V22.8082L31.927 0Z" fill="#1B1C1D"/>
<path d="M34.5289 33.551H34.5328L39.8891 16.8181L45.6544 33.551H36.7026L33.3096 44.1786H59.9897L45.2726 0H34.0965L19.9248 44.1786H31.0814L34.5289 33.551Z" fill="#1B1C1D"/>
</svg>
