<svg width="29" height="29" fill="none" xmlns="http://www.w3.org/2000/svg"><path d="M14.5 22.958c-2.779 0-7.733-.241-9.787-.725a2.393 2.393 0 01-1.692-1.691c-.362-1.33-.604-4.109-.604-6.042 0-1.933.242-4.712.604-6.042a2.393 2.393 0 011.692-1.691c2.054-.484 7.008-.725 9.787-.725 2.78 0 7.734.241 9.788.725.846.241 1.45.846 1.692 1.691.362 1.33.604 4.109.604 6.042 0 1.933-.242 4.713-.604 6.042a2.393 2.393 0 01-1.692 1.691c-2.054.484-7.009.725-9.788.725v0z" stroke="#282323" stroke-width="1.5" stroke-linecap="round" stroke-linejoin="round"/><path d="M12.083 18.125l6.042-3.625-6.042-3.625v7.25z" stroke="#282323" stroke-width="1.5" stroke-linecap="round" stroke-linejoin="round"/></svg>