<svg width="1440" height="800" fill="none" xmlns="http://www.w3.org/2000/svg"><path fill="#1B1C1D" d="M.5.5h1439v799H.5z"/><path stroke="#2F3231" d="M.5.5h1439v799H.5z"/><path stroke="#2F3231" d="M.5.5h1439v799H.5z"/><path stroke="#F5F5F5" d="M.5.5h1439v799H.5z"/><path stroke="#2F3231" stroke-width="3" d="M261.5 151.5h917v497h-917z"/><path stroke="#2F3231" stroke-width="3" d="M261.5 151.5h917v497h-917z"/><path stroke="#F5F5F5" stroke-width="3" d="M261.5 151.5h917v497h-917z"/><path stroke="#2F3231" d="M355.5 200.5h729v399h-729z"/><path stroke="#2F3231" d="M355.5 200.5h729v399h-729z"/><path stroke="#F5F5F5" d="M355.5 200.5h729v399h-729z"/><path stroke="#2F3231" stroke-width="3" d="M451.5 251.5h537v297h-537z"/><path stroke="#2F3231" stroke-width="3" d="M451.5 251.5h537v297h-537z"/><path stroke="#F5F5F5" stroke-width="3" d="M451.5 251.5h537v297h-537z"/><path stroke="#2F3231" d="M165.5 100.5h1109v599h-1109z"/><path stroke="#2F3231" d="M165.5 100.5h1109v599h-1109z"/><path stroke="#F5F5F5" d="M165.5 100.5h1109v599h-1109z"/><path stroke="#2F3231" stroke-width="3" d="M71.5 51.5h1297v697H71.5z"/><path stroke="#2F3231" stroke-width="3" d="M71.5 51.5h1297v697H71.5z"/><path stroke="#F5F5F5" stroke-width="3" d="M71.5 51.5h1297v697H71.5z"/><path d="M521.031 88.112V74.36h-6.552c-.792 0-1.2-.312-1.2-.984 0-.648.408-.984 1.2-.984h15.672c.816 0 1.224.336 1.224.96 0 .672-.408 1.008-1.224 1.008h-6.528v13.752c0 .672-.432 1.008-1.272 1.008-.888 0-1.32-.336-1.32-1.008zm30.226.768l-13.68-6.384v5.616c0 .672-.456 1.008-1.32 1.008-.84 0-1.272-.336-1.272-1.008v-14.88c0-.552.384-.84 1.104-.84h11.28c4.968 0 7.464 1.344 7.464 4.08v1.776c0 2.664-2.496 4.008-7.464 4.008h-5.736l11.136 4.896c.504.216.72.504.72.936 0 .624-.48 1.032-1.32 1.032-.36 0-.528-.048-.912-.24zm-13.68-14.352v5.904h9.864c3.216 0 4.8-.72 4.8-2.184V76.52c0-1.44-1.584-2.16-4.776-2.16h-9.696c-.12 0-.192.048-.192.168zm38.858-.408l-7.848 7.608v6.384c0 .672-.432 1.008-1.296 1.008-.864 0-1.32-.336-1.32-1.008v-6.384l-7.848-7.608c-.288-.264-.432-.456-.432-.816 0-.648.528-1.032 1.344-1.032.504 0 .792.168 1.128.504l7.128 7.056 7.152-7.08c.312-.312.6-.48 1.152-.48.744 0 1.272.384 1.272 1.032 0 .36-.168.576-.432.816zm13.26-1.848c.48 0 .912.24 1.2.696l8.544 13.32 8.568-13.32c.288-.456.696-.696 1.224-.696.816 0 1.344.36 1.344.984 0 .24-.072.432-.288.768l-9.504 14.448c-.288.456-.792.648-1.296.648-.552 0-1.008-.216-1.296-.648L588.639 74c-.216-.312-.264-.504-.264-.744 0-.624.504-.984 1.32-.984zm24.579 15.84V73.28c0-.672.456-1.008 1.344-1.008.816 0 1.248.336 1.248 1.008v14.832c0 .672-.456 1.008-1.32 1.008-.84 0-1.272-.336-1.272-1.008zm23.585.768l-13.68-6.384v5.616c0 .672-.456 1.008-1.32 1.008-.84 0-1.272-.336-1.272-1.008v-14.88c0-.552.384-.84 1.104-.84h11.28c4.968 0 7.464 1.344 7.464 4.08v1.776c0 2.664-2.496 4.008-7.464 4.008h-5.736l11.136 4.896c.504.216.72.504.72.936 0 .624-.48 1.032-1.32 1.032-.36 0-.528-.048-.912-.24zm-13.68-14.352v5.904h9.864c3.216 0 4.8-.72 4.8-2.184V76.52c0-1.44-1.584-2.16-4.776-2.16h-9.696c-.12 0-.192.048-.192.168zm28.008 13.584V74.36h-6.552c-.792 0-1.2-.312-1.2-.984 0-.648.408-.984 1.2-.984h15.672c.816 0 1.224.336 1.224.96 0 .672-.408 1.008-1.224 1.008h-6.528v13.752c0 .672-.432 1.008-1.272 1.008-.888 0-1.32-.336-1.32-1.008zm26.411.888h-5.472c-4.68 0-7.032-1.56-7.032-4.704V73.28c0-.672.432-1.008 1.296-1.008.864 0 1.296.336 1.296 1.008v10.944c0 1.872 1.512 2.808 4.56 2.808h5.232c3.048 0 4.536-.936 4.536-2.808V73.28c0-.672.456-1.008 1.32-1.008.864 0 1.296.336 1.296 1.008v11.016c0 3.144-2.376 4.704-7.032 4.704zm29.605-.576l-2.496-3.864h-12.12l-2.472 3.864c-.312.48-.744.696-1.248.696-.792 0-1.32-.36-1.32-.984 0-.24.048-.432.264-.744l9.504-14.472c.288-.432.792-.624 1.32-.648.528 0 .984.216 1.272.648l9.528 14.448c.24.312.312.528.312.768 0 .624-.528.984-1.32.984-.48 0-.912-.216-1.224-.696zm-8.568-13.296l-4.848 7.584h9.744l-4.896-7.584zM730.761 89h-10.056c-4.68 0-7.032-1.56-7.032-4.704V73.28c0-.672.432-1.008 1.272-1.008.864 0 1.32.336 1.32 1.008v10.944c0 1.872 1.488 2.808 4.56 2.808h9.936c.792 0 1.2.336 1.2.984 0 .648-.408.984-1.2.984zm30.58 0h-9.864c-4.68 0-7.032-1.536-7.032-4.608v-7.464c0-3.024 2.304-4.536 6.912-4.536h3.432c.792 0 1.2.336 1.2.984 0 .648-.408.984-1.2.984h-3.384c-2.904 0-4.368.864-4.368 2.616v2.712h14.304c.768 0 1.152.312 1.152.936 0 .624-.384.936-1.152.936h-14.304v2.76c0 1.8 1.488 2.712 4.56 2.712h9.744c.816 0 1.224.336 1.224.984 0 .648-.408.984-1.224.984zm22.025-.312l-7.392-6.48-7.368 6.504a1.551 1.551 0 01-1.104.408c-.792 0-1.296-.36-1.296-.936 0-.384.12-.576.528-.936l7.464-6.6-7.32-6.432c-.456-.384-.528-.648-.528-.912 0-.648.504-1.032 1.32-1.032.408 0 .72.096 1.104.432l7.296 6.432 7.32-6.432c.36-.312.672-.432 1.104-.432.744 0 1.272.36 1.272.936 0 .36-.168.624-.528.936l-7.392 6.552 7.416 6.504c.48.432.552.672.552.888 0 .648-.528 1.032-1.344 1.032-.408 0-.72-.096-1.104-.432zm23.874-.576v-6.336h-14.592v6.336c0 .672-.432 1.008-1.32 1.008-.84 0-1.272-.336-1.272-1.008V73.28c0-.672.456-1.008 1.344-1.008.84 0 1.248.336 1.248 1.008v6.528h14.592v-6.552c0-.648.432-.984 1.272-.984.864 0 1.32.336 1.32.984v14.856c0 .672-.456 1.008-1.32 1.008-.84 0-1.272-.336-1.272-1.008zm7.355 0V73.28c0-.672.456-1.008 1.344-1.008.816 0 1.248.336 1.248 1.008v14.832c0 .672-.456 1.008-1.32 1.008-.84 0-1.272-.336-1.272-1.008zm26.968-4.44v1.68c0 2.448-2.064 3.648-6.168 3.648h-12.336c-.744 0-1.152-.312-1.152-.936V73.328c0-.624.408-.936 1.152-.936h11.952c4.176 0 6.288 1.32 6.288 3.96v1.368c0 1.272-.672 2.208-1.992 2.856 1.488.672 2.256 1.704 2.256 3.096zm-2.592 1.464v-1.56c0-1.344-1.224-2.016-3.672-2.016h-10.8v5.304c0 .12.072.168.192.168h10.608c2.448 0 3.672-.624 3.672-1.896zm-.24-7.368v-1.344c0-1.368-1.224-2.064-3.696-2.064h-10.344c-.12 0-.192.048-.192.168v5.184h10.728c2.328 0 3.504-.648 3.504-1.944zm7.2 10.344V73.28c0-.672.456-1.008 1.344-1.008.816 0 1.248.336 1.248 1.008v14.832c0 .672-.456 1.008-1.32 1.008-.84 0-1.272-.336-1.272-1.008zm13.912 0V74.36h-6.552c-.792 0-1.2-.312-1.2-.984 0-.648.408-.984 1.2-.984h15.672c.816 0 1.224.336 1.224.96 0 .672-.408 1.008-1.224 1.008h-6.528v13.752c0 .672-.432 1.008-1.272 1.008-.888 0-1.32-.336-1.32-1.008zm13.955 0V73.28c0-.672.456-1.008 1.344-1.008.816 0 1.248.336 1.248 1.008v14.832c0 .672-.456 1.008-1.32 1.008-.84 0-1.272-.336-1.272-1.008zm23.824-3.792v-7.296c0-1.776-1.464-2.664-4.368-2.664h-5.256c-2.904 0-4.368.888-4.368 2.664v7.296c0 1.8 1.464 2.712 4.416 2.712h5.16c2.952 0 4.416-.912 4.416-2.712zm-4.44 4.68h-5.112c-4.68 0-7.032-1.536-7.032-4.608v-7.416c0-3.048 2.304-4.584 6.912-4.584h5.352c4.608 0 6.912 1.536 6.912 4.584v7.416c0 3.072-2.352 4.608-7.032 4.608zm13.038-16.728c.504 0 .864.168 1.272.528l14.472 12.768V73.256c0-.648.432-.984 1.296-.984.864 0 1.296.336 1.296.984v14.856c0 .672-.456 1.008-1.368 1.008-.528 0-.864-.192-1.272-.552L907.468 75.8v12.312c0 .672-.456 1.008-1.32 1.008-.84 0-1.272-.336-1.272-1.008V73.304c0-.696.456-1.032 1.344-1.032zM153.112 558.969H139.36v6.552c0 .792-.312 1.2-.984 1.2-.648 0-.984-.408-.984-1.2v-15.672c0-.816.336-1.224.96-1.224.672 0 1.008.408 1.008 1.224v6.528h13.752c.672 0 1.008.432 1.008 1.272 0 .888-.336 1.32-1.008 1.32zm.768-30.226l-6.384 13.68h5.616c.672 0 1.008.456 1.008 1.32 0 .84-.336 1.272-1.008 1.272h-14.88c-.552 0-.84-.384-.84-1.104v-11.28c0-4.968 1.344-7.464 4.08-7.464h1.776c2.664 0 4.008 2.496 4.008 7.464v5.736l4.896-11.136c.216-.504.504-.72.936-.72.624 0 1.032.48 1.032 1.32 0 .36-.048.528-.24.912zm-14.352 13.68h5.904v-9.864c0-3.216-.72-4.8-2.184-4.8h-1.728c-1.44 0-2.16 1.584-2.16 4.776v9.696c0 .12.048.192.168.192zm-.408-38.858l7.608 7.848h6.384c.672 0 1.008.432 1.008 1.296 0 .864-.336 1.32-1.008 1.32h-6.384l-7.608 7.848c-.264.288-.456.432-.816.432-.648 0-1.032-.528-1.032-1.344 0-.504.168-.792.504-1.128l7.056-7.128-7.08-7.152c-.312-.312-.48-.6-.48-1.152 0-.744.384-1.272 1.032-1.272.36 0 .576.168.816.432zm-1.848-13.26c0-.48.24-.912.696-1.2l13.32-8.544-13.32-8.568c-.456-.288-.696-.696-.696-1.224 0-.816.36-1.344.984-1.344.24 0 .432.072.768.288l14.448 9.504c.456.288.648.792.648 1.296 0 .552-.216 1.008-.648 1.296L139 491.361c-.312.216-.504.264-.744.264-.624 0-.984-.504-.984-1.32zm15.84-24.579H138.28c-.672 0-1.008-.456-1.008-1.344 0-.816.336-1.248 1.008-1.248h14.832c.672 0 1.008.456 1.008 1.32 0 .84-.336 1.272-1.008 1.272zm.768-23.585l-6.384 13.68h5.616c.672 0 1.008.456 1.008 1.32 0 .84-.336 1.272-1.008 1.272h-14.88c-.552 0-.84-.384-.84-1.104v-11.28c0-4.968 1.344-7.464 4.08-7.464h1.776c2.664 0 4.008 2.496 4.008 7.464v5.736l4.896-11.136c.216-.504.504-.72.936-.72.624 0 1.032.48 1.032 1.32 0 .36-.048.528-.24.912zm-14.352 13.68h5.904v-9.864c0-3.216-.72-4.8-2.184-4.8h-1.728c-1.44 0-2.16 1.584-2.16 4.776v9.696c0 .12.048.192.168.192zm13.584-28.008H139.36v6.552c0 .792-.312 1.2-.984 1.2-.648 0-.984-.408-.984-1.2v-15.672c0-.816.336-1.224.96-1.224.672 0 1.008.408 1.008 1.224v6.528h13.752c.672 0 1.008.432 1.008 1.272 0 .888-.336 1.32-1.008 1.32zm.888-26.411v5.472c0 4.68-1.56 7.032-4.704 7.032H138.28c-.672 0-1.008-.432-1.008-1.296 0-.864.336-1.296 1.008-1.296h10.944c1.872 0 2.808-1.512 2.808-4.56v-5.232c0-3.048-.936-4.536-2.808-4.536H138.28c-.672 0-1.008-.456-1.008-1.32 0-.864.336-1.296 1.008-1.296h11.016c3.144 0 4.704 2.376 4.704 7.032zm-.576-29.605l-3.864 2.496v12.12l3.864 2.472c.48.312.696.744.696 1.248 0 .792-.36 1.32-.984 1.32-.24 0-.432-.048-.744-.264l-14.472-9.504c-.432-.288-.624-.792-.648-1.32 0-.528.216-.984.648-1.272l14.448-9.528c.312-.24.528-.312.768-.312.624 0 .984.528.984 1.32 0 .48-.216.912-.696 1.224zm-13.296 8.568l7.584 4.848v-9.744l-7.584 4.896zM154 349.239v10.056c0 4.68-1.56 7.032-4.704 7.032H138.28c-.672 0-1.008-.432-1.008-1.272 0-.864.336-1.32 1.008-1.32h10.944c1.872 0 2.808-1.488 2.808-4.56v-9.936c0-.792.336-1.2.984-1.2.648 0 .984.408.984 1.2zm0-30.58v9.864c0 4.68-1.536 7.032-4.608 7.032h-7.464c-3.024 0-4.536-2.304-4.536-6.912v-3.432c0-.792.336-1.2.984-1.2.648 0 .984.408.984 1.2v3.384c0 2.904.864 4.368 2.616 4.368h2.712v-14.304c0-.768.312-1.152.936-1.152.624 0 .936.384.936 1.152v14.304h2.76c1.8 0 2.712-1.488 2.712-4.56v-9.744c0-.816.336-1.224.984-1.224.648 0 .984.408.984 1.224zm-.312-22.025l-6.48 7.392 6.504 7.368c.336.384.408.744.408 1.104 0 .792-.36 1.296-.936 1.296-.384 0-.576-.12-.936-.528l-6.6-7.464-6.432 7.32c-.384.456-.648.528-.912.528-.648 0-1.032-.504-1.032-1.32 0-.408.096-.72.432-1.104l6.432-7.296-6.432-7.32c-.312-.36-.432-.672-.432-1.104 0-.744.36-1.272.936-1.272.36 0 .624.168.936.528l6.552 7.392 6.504-7.416c.432-.48.672-.552.888-.552.648 0 1.032.528 1.032 1.344 0 .408-.096.72-.432 1.104zm-.576-23.874h-6.336v14.592h6.336c.672 0 1.008.432 1.008 1.32 0 .84-.336 1.272-1.008 1.272H138.28c-.672 0-1.008-.456-1.008-1.344 0-.84.336-1.248 1.008-1.248h6.528V272.76h-6.552c-.648 0-.984-.432-.984-1.272 0-.864.336-1.32.984-1.32h14.856c.672 0 1.008.456 1.008 1.32 0 .84-.336 1.272-1.008 1.272zm0-7.355H138.28c-.672 0-1.008-.456-1.008-1.344 0-.816.336-1.248 1.008-1.248h14.832c.672 0 1.008.456 1.008 1.32 0 .84-.336 1.272-1.008 1.272zm-4.44-26.968h1.68c2.448 0 3.648 2.064 3.648 6.168v12.336c0 .744-.312 1.152-.936 1.152h-14.736c-.624 0-.936-.408-.936-1.152v-11.952c0-4.176 1.32-6.288 3.96-6.288h1.368c1.272 0 2.208.672 2.856 1.992.672-1.488 1.704-2.256 3.096-2.256zm1.464 2.592h-1.56c-1.344 0-2.016 1.224-2.016 3.672v10.8h5.304c.12 0 .168-.072.168-.192v-10.608c0-2.448-.624-3.672-1.896-3.672zm-7.368.24h-1.344c-1.368 0-2.064 1.224-2.064 3.696v10.344c0 .12.048.192.168.192h5.184v-10.728c0-2.328-.648-3.504-1.944-3.504zm10.344-7.2H138.28c-.672 0-1.008-.456-1.008-1.344 0-.816.336-1.248 1.008-1.248h14.832c.672 0 1.008.456 1.008 1.32 0 .84-.336 1.272-1.008 1.272zm0-13.912H139.36v6.552c0 .792-.312 1.2-.984 1.2-.648 0-.984-.408-.984-1.2v-15.672c0-.816.336-1.224.96-1.224.672 0 1.008.408 1.008 1.224v6.528h13.752c.672 0 1.008.432 1.008 1.272 0 .888-.336 1.32-1.008 1.32zm0-13.955H138.28c-.672 0-1.008-.456-1.008-1.344 0-.816.336-1.248 1.008-1.248h14.832c.672 0 1.008.456 1.008 1.32 0 .84-.336 1.272-1.008 1.272zm-3.792-23.824h-7.296c-1.776 0-2.664 1.464-2.664 4.368v5.256c0 2.904.888 4.368 2.664 4.368h7.296c1.8 0 2.712-1.464 2.712-4.416v-5.16c0-2.952-.912-4.416-2.712-4.416zm4.68 4.44v5.112c0 4.68-1.536 7.032-4.608 7.032h-7.416c-3.048 0-4.584-2.304-4.584-6.912v-5.352c0-4.608 1.536-6.912 4.584-6.912h7.416c3.072 0 4.608 2.352 4.608 7.032zm-16.728-13.038c0-.504.168-.864.528-1.272l12.768-14.472h-12.312c-.648 0-.984-.432-.984-1.296 0-.864.336-1.296.984-1.296h14.856c.672 0 1.008.456 1.008 1.368 0 .528-.192.864-.552 1.272L140.8 172.532h12.312c.672 0 1.008.456 1.008 1.32 0 .84-.336 1.272-1.008 1.272h-14.808c-.696 0-1.032-.456-1.032-1.344zm958.468 42.829h11.46v-5.46c0-.66.26-1 .82-1 .54 0 .82.34.82 1v13.06c0 .68-.28 1.02-.8 1.02-.56 0-.84-.34-.84-1.02v-5.44h-11.46c-.56 0-.84-.36-.84-1.06 0-.74.28-1.1.84-1.1zm-.64 25.189l5.32-11.4h-4.68c-.56 0-.84-.38-.84-1.1 0-.7.28-1.06.84-1.06h12.4c.46 0 .7.32.7.92v9.4c0 4.14-1.12 6.22-3.4 6.22h-1.48c-2.22 0-3.34-2.08-3.34-6.22v-4.78l-4.08 9.28c-.18.42-.42.6-.78.6-.52 0-.86-.4-.86-1.1 0-.3.04-.44.2-.76zm11.96-11.4h-4.92v8.22c0 2.68.6 4 1.82 4h1.44c1.2 0 1.8-1.32 1.8-3.98v-8.08c0-.1-.04-.16-.14-.16zm.34 32.381l-6.34-6.54h-5.32c-.56 0-.84-.36-.84-1.08 0-.72.28-1.1.84-1.1h5.32l6.34-6.54c.22-.24.38-.36.68-.36.54 0 .86.44.86 1.12 0 .42-.14.66-.42.94l-5.88 5.94 5.9 5.96c.26.26.4.5.4.96 0 .62-.32 1.06-.86 1.06-.3 0-.48-.14-.68-.36zm1.54 11.05c0 .4-.2.76-.58 1l-11.1 7.12 11.1 7.14c.38.24.58.58.58 1.02 0 .68-.3 1.12-.82 1.12-.2 0-.36-.06-.64-.24l-12.04-7.92c-.38-.24-.54-.66-.54-1.08 0-.46.18-.84.54-1.08l12.06-7.96c.26-.18.42-.22.62-.22.52 0 .82.42.82 1.1zm-13.2 20.483h12.36c.56 0 .84.38.84 1.12 0 .68-.28 1.04-.84 1.04h-12.36c-.56 0-.84-.38-.84-1.1 0-.7.28-1.06.84-1.06zm-.64 19.654l5.32-11.4h-4.68c-.56 0-.84-.38-.84-1.1 0-.7.28-1.06.84-1.06h12.4c.46 0 .7.32.7.92v9.4c0 4.14-1.12 6.22-3.4 6.22h-1.48c-2.22 0-3.34-2.08-3.34-6.22v-4.78l-4.08 9.28c-.18.42-.42.6-.78.6-.52 0-.86-.4-.86-1.1 0-.3.04-.44.2-.76zm11.96-11.4h-4.92v8.22c0 2.68.6 4 1.82 4h1.44c1.2 0 1.8-1.32 1.8-3.98v-8.08c0-.1-.04-.16-.14-.16zm-11.32 23.34h11.46v-5.46c0-.66.26-1 .82-1 .54 0 .82.34.82 1v13.06c0 .68-.28 1.02-.8 1.02-.56 0-.84-.34-.84-1.02v-5.44h-11.46c-.56 0-.84-.36-.84-1.06 0-.74.28-1.1.84-1.1zm-.74 22.009v-4.56c0-3.9 1.3-5.86 3.92-5.86h9.18c.56 0 .84.36.84 1.08 0 .72-.28 1.08-.84 1.08h-9.12c-1.56 0-2.34 1.26-2.34 3.8v4.36c0 2.54.78 3.78 2.34 3.78h9.12c.56 0 .84.38.84 1.1 0 .72-.28 1.08-.84 1.08h-9.18c-2.62 0-3.92-1.98-3.92-5.86zm.48 24.671l3.22-2.08v-10.1l-3.22-2.06c-.4-.26-.58-.62-.58-1.04 0-.66.3-1.1.82-1.1.2 0 .36.04.62.22l12.06 7.92c.36.24.52.66.54 1.1 0 .44-.18.82-.54 1.06l-12.04 7.94c-.26.2-.44.26-.64.26-.52 0-.82-.44-.82-1.1 0-.4.18-.76.58-1.02zm11.08-7.14l-6.32-4.04v8.12l6.32-4.08zM1095 391.384v-8.38c0-3.9 1.3-5.86 3.92-5.86h9.18c.56 0 .84.36.84 1.06 0 .72-.28 1.1-.84 1.1h-9.12c-1.56 0-2.34 1.24-2.34 3.8v8.28c0 .66-.28 1-.82 1-.54 0-.82-.34-.82-1zm0 25.483v-8.22c0-3.9 1.28-5.86 3.84-5.86h6.22c2.52 0 3.78 1.92 3.78 5.76v2.86c0 .66-.28 1-.82 1-.54 0-.82-.34-.82-1v-2.82c0-2.42-.72-3.64-2.18-3.64h-2.26v11.92c0 .64-.26.96-.78.96s-.78-.32-.78-.96v-11.92h-2.3c-1.5 0-2.26 1.24-2.26 3.8v8.12c0 .68-.28 1.02-.82 1.02-.54 0-.82-.34-.82-1.02zm.26 18.354l5.4-6.16-5.42-6.14c-.28-.32-.34-.62-.34-.92 0-.66.3-1.08.78-1.08.32 0 .48.1.78.44l5.5 6.22 5.36-6.1c.32-.38.54-.44.76-.44.54 0 .86.42.86 1.1 0 .34-.08.6-.36.92l-5.36 6.08 5.36 6.1c.26.3.36.56.36.92 0 .62-.3 1.06-.78 1.06-.3 0-.52-.14-.78-.44l-5.46-6.16-5.42 6.18c-.36.4-.56.46-.74.46-.54 0-.86-.44-.86-1.12 0-.34.08-.6.36-.92zm.48 19.895h5.28v-12.16h-5.28c-.56 0-.84-.36-.84-1.1 0-.7.28-1.06.84-1.06h12.36c.56 0 .84.38.84 1.12 0 .7-.28 1.04-.84 1.04h-5.44v12.16h5.46c.54 0 .82.36.82 1.06 0 .72-.28 1.1-.82 1.1h-12.38c-.56 0-.84-.38-.84-1.1 0-.7.28-1.06.84-1.06zm0 6.13h12.36c.56 0 .84.38.84 1.12 0 .68-.28 1.04-.84 1.04h-12.36c-.56 0-.84-.38-.84-1.1 0-.7.28-1.06.84-1.06zm3.7 22.473h-1.4c-2.04 0-3.04-1.72-3.04-5.14v-10.28c0-.62.26-.96.78-.96h12.28c.52 0 .78.34.78.96v9.96c0 3.48-1.1 5.24-3.3 5.24h-1.14c-1.06 0-1.84-.56-2.38-1.66-.56 1.24-1.42 1.88-2.58 1.88zm-1.22-2.16h1.3c1.12 0 1.68-1.02 1.68-3.06v-9h-4.42c-.1 0-.14.06-.14.16v8.84c0 2.04.52 3.06 1.58 3.06zm6.14-.2h1.12c1.14 0 1.72-1.02 1.72-3.08v-8.62c0-.1-.04-.16-.14-.16h-4.32v8.94c0 1.94.54 2.92 1.62 2.92zm-8.62 6h12.36c.56 0 .84.38.84 1.12 0 .68-.28 1.04-.84 1.04h-12.36c-.56 0-.84-.38-.84-1.1 0-.7.28-1.06.84-1.06zm0 11.594h11.46v-5.46c0-.66.26-1 .82-1 .54 0 .82.34.82 1v13.06c0 .68-.28 1.02-.8 1.02-.56 0-.84-.34-.84-1.02v-5.44h-11.46c-.56 0-.84-.36-.84-1.06 0-.74.28-1.1.84-1.1zm0 11.629h12.36c.56 0 .84.38.84 1.12 0 .68-.28 1.04-.84 1.04h-12.36c-.56 0-.84-.38-.84-1.1 0-.7.28-1.06.84-1.06zm3.16 19.853h6.08c1.48 0 2.22-1.22 2.22-3.64v-4.38c0-2.42-.74-3.64-2.22-3.64h-6.08c-1.5 0-2.26 1.22-2.26 3.68v4.3c0 2.46.76 3.68 2.26 3.68zm-3.9-3.7v-4.26c0-3.9 1.28-5.86 3.84-5.86h6.18c2.54 0 3.82 1.92 3.82 5.76v4.46c0 3.84-1.28 5.76-3.82 5.76h-6.18c-2.56 0-3.84-1.96-3.84-5.86zm13.94 10.865c0 .42-.14.72-.44 1.06l-10.64 12.06h10.26c.54 0 .82.36.82 1.08 0 .72-.28 1.08-.82 1.08h-12.38c-.56 0-.84-.38-.84-1.14 0-.44.16-.72.46-1.06l10.64-12.04h-10.26c-.56 0-.84-.38-.84-1.1 0-.7.28-1.06.84-1.06h12.34c.58 0 .86.38.86 1.12zm-257.127 21.992v9.168h4.368c.528 0 .8.208.8.656 0 .432-.272.656-.8.656h-10.448c-.544 0-.816-.224-.816-.64 0-.448.272-.672.816-.672h4.352v-9.168c0-.448.288-.672.848-.672.592 0 .88.224.88.672zm-20.151-.512l9.12 4.256v-3.744c0-.448.304-.672.88-.672.56 0 .848.224.848.672v9.92c0 .368-.256.56-.736.56h-7.52c-3.312 0-4.976-.896-4.976-2.72v-1.184c0-1.776 1.664-2.672 4.976-2.672h3.824l-7.424-3.264c-.336-.144-.48-.336-.48-.624 0-.416.32-.688.88-.688.24 0 .352.032.608.16zm9.12 9.568v-3.936h-6.576c-2.144 0-3.2.48-3.2 1.456v1.152c0 .96 1.056 1.44 3.184 1.44h6.464c.08 0 .128-.032.128-.112zm-25.905.272l5.232-5.072v-4.256c0-.448.288-.672.864-.672.576 0 .88.224.88.672v4.256l5.232 5.072c.192.176.288.304.288.544 0 .432-.352.688-.896.688-.336 0-.528-.112-.752-.336l-4.752-4.704-4.768 4.72c-.208.208-.4.32-.768.32-.496 0-.848-.256-.848-.688 0-.24.112-.384.288-.544zm-8.841 1.232c-.32 0-.608-.16-.8-.464l-5.696-8.88-5.712 8.88c-.192.304-.464.464-.816.464-.544 0-.896-.24-.896-.656 0-.16.048-.288.192-.512l6.336-9.632c.192-.304.528-.432.864-.432.368 0 .672.144.864.432L806.74 569c.144.208.176.336.176.496 0 .416-.336.656-.88.656zm-16.386-10.56v9.888c0 .448-.304.672-.896.672-.544 0-.832-.224-.832-.672v-9.888c0-.448.304-.672.88-.672.56 0 .848.224.848.672zm-15.723-.512l9.12 4.256v-3.744c0-.448.304-.672.88-.672.56 0 .848.224.848.672v9.92c0 .368-.256.56-.736.56h-7.52c-3.312 0-4.976-.896-4.976-2.72v-1.184c0-1.776 1.664-2.672 4.976-2.672h3.824l-7.424-3.264c-.336-.144-.48-.336-.48-.624 0-.416.32-.688.88-.688.24 0 .352.032.608.16zm9.12 9.568v-3.936h-6.576c-2.144 0-3.2.48-3.2 1.456v1.152c0 .96 1.056 1.44 3.184 1.44h6.464c.08 0 .128-.032.128-.112zm-18.672-9.056v9.168h4.368c.528 0 .8.208.8.656 0 .432-.272.656-.8.656h-10.448c-.544 0-.816-.224-.816-.64 0-.448.272-.672.816-.672h4.352v-9.168c0-.448.288-.672.848-.672.592 0 .88.224.88.672zM746.768 559h3.648c3.12 0 4.688 1.04 4.688 3.136v7.344c0 .448-.288.672-.864.672-.576 0-.864-.224-.864-.672v-7.296c0-1.248-1.008-1.872-3.04-1.872h-3.488c-2.032 0-3.024.624-3.024 1.872v7.296c0 .448-.304.672-.88.672-.576 0-.864-.224-.864-.672v-7.344c0-2.096 1.584-3.136 4.688-3.136zm-19.737.384l1.664 2.576h8.08l1.648-2.576c.208-.32.496-.464.832-.464.528 0 .88.24.88.656 0 .16-.032.288-.176.496l-6.336 9.648c-.192.288-.528.416-.88.432-.352 0-.656-.144-.848-.432l-6.352-9.632c-.16-.208-.208-.352-.208-.512 0-.416.352-.656.88-.656.32 0 .608.144.816.464zm5.712 8.864l3.232-5.056h-6.496l3.264 5.056zM711.993 559h6.704c3.12 0 4.688 1.04 4.688 3.136v7.344c0 .448-.288.672-.848.672-.576 0-.88-.224-.88-.672v-7.296c0-1.248-.992-1.872-3.04-1.872h-6.624c-.528 0-.8-.224-.8-.656 0-.432.272-.656.8-.656zm-20.387 0h6.576c3.12 0 4.688 1.024 4.688 3.072v4.976c0 2.016-1.536 3.024-4.608 3.024h-2.288c-.528 0-.8-.224-.8-.656 0-.432.272-.656.8-.656h2.256c1.936 0 2.912-.576 2.912-1.744v-1.808h-9.536c-.512 0-.768-.208-.768-.624 0-.416.256-.624.768-.624h9.536v-1.84c0-1.2-.992-1.808-3.04-1.808h-6.496c-.544 0-.816-.224-.816-.656 0-.432.272-.656.816-.656zm-14.683.208l4.928 4.32 4.912-4.336c.256-.224.496-.272.736-.272.528 0 .864.24.864.624 0 .256-.08.384-.352.624l-4.976 4.4 4.88 4.288c.304.256.352.432.352.608 0 .432-.336.688-.88.688-.272 0-.48-.064-.736-.288l-4.864-4.288-4.88 4.288c-.24.208-.448.288-.736.288-.496 0-.848-.24-.848-.624 0-.24.112-.416.352-.624l4.928-4.368-4.944-4.336c-.32-.288-.368-.448-.368-.592 0-.432.352-.688.896-.688.272 0 .48.064.736.288zm-15.916.384v4.224h9.728v-4.224c0-.448.288-.672.88-.672.56 0 .848.224.848.672v9.888c0 .448-.304.672-.896.672-.56 0-.832-.224-.832-.672v-4.352h-9.728v4.368c0 .432-.288.656-.848.656-.576 0-.88-.224-.88-.656v-9.904c0-.448.304-.672.88-.672.56 0 .848.224.848.672zm-4.904 0v9.888c0 .448-.304.672-.896.672-.544 0-.832-.224-.832-.672v-9.888c0-.448.304-.672.88-.672.56 0 .848.224.848.672zm-17.979 2.96v-1.12c0-1.632 1.376-2.432 4.112-2.432h8.225c.495 0 .767.208.767.624v9.824c0 .416-.272.624-.767.624h-7.969c-2.784 0-4.192-.88-4.192-2.64v-.912c0-.848.448-1.472 1.328-1.904-.992-.448-1.504-1.136-1.504-2.064zm1.728-.976v1.04c0 .896.816 1.344 2.448 1.344h7.2v-3.536c0-.08-.048-.112-.128-.112H642.3c-1.632 0-2.448.416-2.448 1.264zm.16 4.912v.896c0 .912.816 1.376 2.464 1.376h6.896c.08 0 .128-.032.128-.112v-3.456h-7.152c-1.552 0-2.336.432-2.336 1.296zm-4.799-6.896v9.888c0 .448-.304.672-.896.672-.544 0-.832-.224-.832-.672v-9.888c0-.448.304-.672.88-.672.56 0 .848.224.848.672zm-9.275 0v9.168h4.368c.528 0 .8.208.8.656 0 .432-.272.656-.8.656h-10.448c-.544 0-.816-.224-.816-.64 0-.448.272-.672.816-.672h4.352v-9.168c0-.448.288-.672.848-.672.592 0 .88.224.88.672zm-9.303 0v9.888c0 .448-.304.672-.896.672-.544 0-.832-.224-.832-.672v-9.888c0-.448.304-.672.88-.672.56 0 .848.224.848.672zm-15.883 2.528v4.864c0 1.184.976 1.776 2.912 1.776h3.504c1.936 0 2.912-.592 2.912-1.776v-4.864c0-1.2-.976-1.808-2.944-1.808h-3.44c-1.968 0-2.944.608-2.944 1.808zm2.96-3.12h3.408c3.12 0 4.688 1.024 4.688 3.072v4.944c0 2.032-1.536 3.056-4.608 3.056h-3.568c-3.072 0-4.608-1.024-4.608-3.056v-4.944c0-2.048 1.568-3.072 4.688-3.072zm-8.692 11.152c-.336 0-.576-.112-.848-.352l-9.648-8.512v8.208c0 .432-.288.656-.864.656-.576 0-.864-.224-.864-.656v-9.904c0-.448.304-.672.912-.672.352 0 .576.128.848.368l9.632 8.512v-8.208c0-.448.304-.672.88-.672.56 0 .848.224.848.672v9.872c0 .464-.304.688-.896.688z" fill="#F5F5F5"/><rect x="620" y="300" width="200" height="200" rx="100" fill="#7E2424"/><path d="M660.445 407.612V393.86h-6.552c-.792 0-1.2-.312-1.2-.984 0-.648.408-.984 1.2-.984h15.672c.816 0 1.224.336 1.224.96 0 .672-.408 1.008-1.224 1.008h-6.528v13.752c0 .672-.432 1.008-1.272 1.008-.888 0-1.32-.336-1.32-1.008zm27.899-4.152h-13.656v1.464c0 1.128 1.104 1.704 3.336 1.704h3.552c.792 0 1.2.312 1.2.936 0 .624-.408.936-1.2.936h-3.552c-3.888 0-5.856-1.176-5.856-3.552v-4.704c0-2.256 1.752-3.408 5.232-3.408h6.936c3.408 0 5.112 1.032 5.112 3.072v2.688c0 .576-.384.864-1.104.864zm-13.656-3.072v1.416h12.048c.144 0 .192-.072.192-.168v-1.248c0-1.104-.912-1.656-2.784-1.656h-6.6c-1.92 0-2.856.552-2.856 1.656zm18.764 7.224v-15.168c0-.648.432-1.008 1.272-1.008.84 0 1.272.36 1.272 1.008v15.168c0 .672-.432 1.008-1.272 1.008-.84 0-1.272-.336-1.272-1.008zm23.205-4.152h-13.656v1.464c0 1.128 1.104 1.704 3.336 1.704h3.552c.792 0 1.2.312 1.2.936 0 .624-.408.936-1.2.936h-3.552c-3.888 0-5.856-1.176-5.856-3.552v-4.704c0-2.256 1.752-3.408 5.232-3.408h6.936c3.408 0 5.112 1.032 5.112 3.072v2.688c0 .576-.384.864-1.104.864zm-13.656-3.072v1.416h12.048c.144 0 .192-.072.192-.168v-1.248c0-1.104-.912-1.656-2.784-1.656h-6.6c-1.92 0-2.856.552-2.856 1.656zm29.732 8.112h-8.472v3.168c0 .672-.432 1.008-1.272 1.008-.84 0-1.272-.336-1.272-1.008v-11.016c0-2.544 2.064-3.816 6.192-3.816h4.824c4.128 0 6.192 1.272 6.192 3.816v4.056c0 2.52-2.064 3.792-6.192 3.792zm-8.472-7.872v5.928h8.544c2.376 0 3.552-.624 3.552-1.824v-4.104c0-1.224-1.176-1.824-3.552-1.824h-4.992c-2.352 0-3.552.6-3.552 1.824zm29.912 7.872h-4.632c-4.152 0-6.216-1.272-6.216-3.792v-4.056c0-2.544 2.064-3.816 6.216-3.816h4.632c4.152 0 6.216 1.272 6.216 3.816v4.056c0 2.52-2.064 3.792-6.216 3.792zm3.648-3.768v-4.104c0-1.224-1.2-1.824-3.576-1.824h-4.8c-2.352 0-3.552.6-3.552 1.824v4.104c0 1.2 1.2 1.824 3.552 1.824h4.8c2.376 0 3.576-.624 3.576-1.824zm6.998 2.88v-6.96c0-2.544 2.064-3.816 6.192-3.816h1.848c.816 0 1.224.336 1.224.984 0 .648-.408.984-1.224.984h-1.944c-2.353 0-3.552.6-3.552 1.8v7.008c0 .672-.432 1.008-1.273 1.008-.839 0-1.271-.36-1.271-1.008zm21.047-8.808h-4.128v8.808c0 .672-.432 1.008-1.248 1.008-.864 0-1.296-.336-1.296-1.008v-8.808h-.984c-.768 0-1.176-.312-1.176-.936 0-.624.408-.936 1.176-.936h.984v-2.208c0-.648.408-1.008 1.248-1.008.864 0 1.296.36 1.296 1.008v2.208h4.128c.792 0 1.2.312 1.2.936 0 .624-.408.936-1.2.936z" fill="#F5F5F5"/></svg>