<svg width="200" height="200" viewBox="0 0 200 200" fill="none" xmlns="http://www.w3.org/2000/svg">
<path d="M79.1551 176.349L75.8515 189.698L82.2061 191.294C82.9743 191.487 83.295 191.889 83.1336 192.542C82.9779 193.171 82.5015 193.398 81.7334 193.205L66.5335 189.387C65.7421 189.188 65.4271 188.763 65.577 188.157C65.7384 187.505 66.2148 187.278 67.0062 187.477L73.3376 189.067L76.6411 175.717C76.8026 175.065 77.3023 174.844 78.117 175.049C78.9782 175.265 79.3165 175.697 79.1551 176.349Z" fill="white"/>
<path d="M54.4315 170.314L66.7195 176.272L67.3505 174.951C67.8367 173.933 67.0916 172.931 65.0832 171.958L61.887 170.408C61.1744 170.063 60.9417 169.603 61.2107 169.04C61.4796 168.477 61.9812 168.373 62.6939 168.719L65.8901 170.269C69.3886 171.965 70.6525 173.884 69.6284 176.028L67.6008 180.273C66.6284 182.309 64.5554 182.584 61.424 181.066L55.1828 178.04C52.1163 176.553 51.0278 174.878 51.9071 173.038L53.0657 170.612C53.314 170.092 53.7836 170 54.4315 170.314ZM65.3954 179.044L66.0057 177.766L55.1646 172.51C55.0351 172.447 54.9608 172.491 54.9195 172.578L54.3815 173.704C53.9057 174.7 54.4884 175.596 56.1728 176.413L62.1117 179.292C63.8393 180.13 64.9195 180.04 65.3954 179.044Z" fill="white"/>
<path d="M56.0787 165.505L47.5245 178.031C47.1591 178.566 46.601 178.617 45.9106 178.138C45.2202 177.66 45.0682 177.116 45.4337 176.581L53.9879 164.056C54.3668 163.501 54.9114 163.469 55.6018 163.948C56.2921 164.426 56.4577 164.95 56.0787 165.505Z" fill="white"/>
<path d="M35.6498 153.124L45.5439 162.537L46.5451 161.468C47.3165 160.645 46.9105 159.464 45.2934 157.926L42.7199 155.478C42.1461 154.932 42.0638 154.423 42.4905 153.968C42.9173 153.512 43.4262 153.566 44.0001 154.112L46.5736 156.56C49.3905 159.24 50.0122 161.454 48.3873 163.188L45.1704 166.62C43.6276 168.266 41.5705 167.899 39.0491 165.5L34.0238 160.72C31.5546 158.371 31.0258 156.443 32.4209 154.955L34.2591 152.994C34.653 152.573 35.1282 152.628 35.6498 153.124ZM43.4431 164.778L44.4115 163.745L35.6824 155.441C35.578 155.341 35.494 155.361 35.4284 155.431L34.5749 156.341C33.8199 157.147 34.1032 158.178 35.4595 159.469L40.2414 164.018C41.6325 165.341 42.6881 165.583 43.4431 164.778Z" fill="white"/>
<path d="M33.3312 139.93L38.1326 146.91L40.7302 145.097C41.2812 144.712 41.8015 144.876 42.2776 145.568C42.7536 146.26 42.7229 146.808 42.1719 147.193L33.1394 153.499C31.0535 154.955 28.8408 153.983 26.5013 150.581L23.7674 146.607C21.4279 143.206 21.3012 140.777 23.3871 139.321L26.7128 136.999C28.7791 135.557 30.9918 136.529 33.3312 139.93ZM31.678 151.416L36.5386 148.023L31.6965 140.984C30.3499 139.026 29.1718 138.414 28.1879 139.101L24.8228 141.45C23.8192 142.151 23.9937 143.463 25.3402 145.421L28.1694 149.534C29.5023 151.472 30.6744 152.117 31.678 151.416Z" fill="white"/>
<path d="M26.8381 125.449L28.6219 129.724C30.2208 133.556 29.8443 135.956 27.5239 136.939L23.789 138.521C21.4464 139.513 19.4803 138.104 17.8814 134.273L16.0976 129.998C14.4987 126.166 14.8752 123.765 17.2177 122.773L20.9526 121.191C23.2731 120.208 25.2392 121.617 26.8381 125.449ZM21.9636 123.552L18.1846 125.152C17.0575 125.63 16.9671 126.971 17.8821 129.164L19.7305 133.594C20.6363 135.764 21.6509 136.638 22.778 136.16L26.557 134.56C27.662 134.092 27.7745 132.741 26.8688 130.571L25.0203 126.141C24.1053 123.948 23.0686 123.084 21.9636 123.552Z" fill="white"/>
<path d="M24.5559 120.18L17.7672 121.715C15.2858 122.276 13.5964 120.542 12.6989 116.512L12.2972 114.709C12.1198 113.912 12.3588 113.44 12.9909 113.297C13.6229 113.154 14.0394 113.478 14.2168 114.275L14.6394 116.172C15.1507 118.468 15.9968 119.507 17.1673 119.242L24.0028 117.697C24.6583 117.549 25.0799 117.897 25.2625 118.716C25.4451 119.536 25.1879 120.037 24.5559 120.18Z" fill="white"/>
<path d="M13.1423 101.537L13.4623 105.652L22.243 104.959C22.913 104.906 23.2814 105.311 23.3447 106.124C23.4116 106.986 23.1102 107.443 22.4403 107.496L13.6596 108.189L13.7358 109.17C13.7954 109.935 13.516 110.367 12.8939 110.416C12.2718 110.465 11.9292 110.083 11.8696 109.317L11.7934 108.336L9.5922 108.51C8.94621 108.561 8.55569 108.182 8.49058 107.345C8.4236 106.483 8.74899 106.024 9.39498 105.973L11.5961 105.8L11.2761 101.684C11.2147 100.894 11.4941 100.463 12.1162 100.414C12.7383 100.365 13.0809 100.747 13.1423 101.537Z" fill="white"/>
<path d="M24.059 83.2333L10.583 80.4923L9.29552 86.9165C9.13989 87.6931 8.75398 88.031 8.09546 87.897C7.46047 87.7679 7.21138 87.3008 7.36701 86.5243L10.4465 71.1578C10.6069 70.3577 11.0163 70.0246 11.6278 70.149C12.2863 70.283 12.5354 70.75 12.3751 71.5501L11.0923 77.9508L24.5684 80.6919C25.2269 80.8258 25.4713 81.3164 25.3062 82.14C25.1317 83.0107 24.7176 83.3673 24.059 83.2333Z" fill="white"/>
<path d="M28.8413 58.1081L23.514 70.6822L24.8589 71.2605C25.8952 71.7061 26.855 70.9171 27.7257 68.8619L29.1114 65.5913C29.4203 64.8621 29.8661 64.6097 30.4394 64.8562C31.0126 65.1027 31.1401 65.6016 30.8311 66.3308L29.4455 69.6014C27.9288 73.1814 26.0807 74.5289 23.8979 73.5903L19.5765 71.7321C17.504 70.8409 17.1291 68.7726 18.4867 65.5683L21.1925 59.1819C22.5219 56.0439 24.1347 54.8826 26.0088 55.6884L28.4782 56.7503C29.0074 56.9778 29.1221 57.4452 28.8413 58.1081ZM20.6919 69.4686L21.9927 70.028L26.6927 58.9345C26.7488 58.8019 26.7014 58.7293 26.6132 58.6914L25.4667 58.1984C24.4525 57.7623 23.5896 58.384 22.8594 60.1076L20.2847 66.1847C19.5357 67.9526 19.6776 69.0325 20.6919 69.4686Z" fill="white"/>
<path d="M33.6908 59.4725L20.8466 51.4044C20.2978 51.0597 20.2203 50.5009 20.6624 49.7866C21.1045 49.0724 21.6367 48.8965 22.1854 49.2412L35.0296 57.3093C35.5986 57.6668 35.6558 58.2128 35.2138 58.9271C34.7717 59.6414 34.2598 59.83 33.6908 59.4725Z" fill="white"/>
<path d="M44.9953 38.3332L36.1149 48.7074L37.22 49.6676C38.0716 50.4074 39.2243 49.9465 40.6757 48.2509L42.9856 45.5525C43.5006 44.9508 44.0015 44.8455 44.4725 45.2547C44.9436 45.664 44.9138 46.1785 44.3987 46.7802L42.0889 49.4786C39.5606 52.4323 37.393 53.1561 35.5994 51.5978L32.0484 48.5126C30.3454 47.033 30.615 44.9465 32.8781 42.3028L37.3885 37.0337C39.6047 34.4447 41.4918 33.827 43.0318 35.1649L45.0609 36.9278C45.4958 37.3056 45.4635 37.7862 44.9953 38.3332ZM33.7958 46.6927L34.8648 47.6214L42.6995 38.4687C42.7931 38.3593 42.77 38.2756 42.6975 38.2126L41.7554 37.3941C40.922 36.6701 39.9122 37.0009 38.6949 38.423L34.403 43.4369C33.1544 44.8955 32.9624 45.9686 33.7958 46.6927Z" fill="white"/>
<path d="M57.9645 35.3239L51.2442 40.4826L53.1552 43.0093C53.5606 43.5453 53.4206 44.0763 52.7543 44.5878C52.088 45.0993 51.5426 45.0944 51.1373 44.5584L44.4921 35.7724C42.9575 33.7433 43.8274 31.472 47.1019 28.9584L50.9285 26.021C54.2029 23.5074 56.6075 23.2651 58.1421 25.2941L60.5888 28.5291C62.1089 30.5389 61.239 32.8103 57.9645 35.3239ZM46.4956 34.2041L50.0715 38.9321L56.8489 33.7295C58.7337 32.2828 59.2901 31.069 58.5662 30.1119L56.0906 26.8387C55.3522 25.8625 54.0575 26.1 52.1727 27.5468L48.2129 30.5865C46.3472 32.0187 45.7573 33.2279 46.4956 34.2041Z" fill="white"/>
<path d="M72.0485 28.0669L67.8695 30.0647C64.1235 31.8555 61.7193 31.595 60.6455 29.3152L58.9172 25.6459C57.8331 23.3444 59.1533 21.3035 62.8992 19.5127L67.0782 17.5148C70.8242 15.724 73.2283 15.9845 74.3124 18.286L76.0407 21.9553C77.1145 24.2351 75.7944 26.2761 72.0485 28.0669ZM73.7341 23.0847L71.9853 19.3719C71.4637 18.2646 70.1254 18.2394 67.9818 19.2642L63.6512 21.3345C61.5292 22.3489 60.7023 23.4093 61.2238 24.5166L62.9726 28.2293C63.484 29.3149 64.8325 29.3619 66.9545 28.3474L71.2851 26.2771C73.4287 25.2523 74.2454 24.1703 73.7341 23.0847Z" fill="white"/>
<path d="M77.1363 25.5179L75.3203 18.7989C74.6566 16.3431 76.3152 14.5691 80.2961 13.4771L82.0783 12.9882C82.8652 12.7724 83.3463 12.9888 83.5154 13.6143C83.6845 14.2399 83.3787 14.6722 82.5917 14.8881L80.717 15.4023C78.4488 16.0245 77.4481 16.9212 77.7612 18.0796L79.5896 24.8449C79.765 25.4936 79.436 25.9322 78.6259 26.1545C77.8159 26.3767 77.3053 26.1434 77.1363 25.5179Z" fill="white"/>
<path d="M95.1944 13.2291L91.0982 13.7405L92.1734 22.4826C92.2555 23.1496 91.8678 23.5366 91.0581 23.6376C90.2008 23.7447 89.7311 23.4647 89.649 22.7977L88.5738 14.0556L87.5973 14.1775C86.8352 14.2726 86.3923 14.0135 86.3161 13.3942C86.2399 12.7749 86.6067 12.4146 87.3688 12.3195L88.3452 12.1976L88.0757 10.0061C87.9966 9.36297 88.3575 8.95512 89.191 8.85106C90.0483 8.74403 90.521 9.04783 90.6001 9.69098L90.8696 11.8825L94.9658 11.3711C95.7517 11.273 96.1947 11.5321 96.2709 12.1514C96.347 12.7708 95.9803 13.131 95.1944 13.2291Z" fill="white"/>
<path d="M113.86 23.3531L115.955 9.76176L109.482 8.74872C108.7 8.62626 108.344 8.25482 108.447 7.59067C108.545 6.95024 109 6.68125 109.782 6.8037L125.266 9.22685C126.072 9.35302 126.424 9.74818 126.329 10.3649C126.226 11.029 125.772 11.298 124.966 11.1719L118.516 10.1625L116.421 23.7539C116.318 24.4181 115.84 24.6833 115.01 24.5535C114.133 24.4162 113.757 24.0173 113.86 23.3531Z" fill="white"/>
<path d="M139.03 27.12L126.253 22.2997L125.743 23.672C125.35 24.7293 126.182 25.6589 128.271 26.4468L131.594 27.7005C132.335 27.9801 132.608 28.4166 132.391 29.0015C132.173 29.5864 131.683 29.7348 130.942 29.4552L127.618 28.2015C123.981 26.8291 122.549 25.0321 123.377 22.805L125.016 18.3958C125.802 16.2811 127.842 15.8197 131.098 17.0481L137.588 19.4963C140.777 20.6992 142.011 22.268 141.301 24.1802L140.364 26.6998C140.163 27.2397 139.704 27.3741 139.03 27.12ZM127.323 19.4202L126.83 20.7475L138.103 25.0001C138.237 25.051 138.307 25.0004 138.341 24.9104L138.776 23.7406C139.16 22.7058 138.499 21.8665 136.748 21.2057L130.573 18.8761C128.776 18.1984 127.708 18.3854 127.323 19.4202Z" fill="white"/>
<path d="M137.814 32.0533L145.209 18.8099C145.525 18.2442 146.076 18.1429 146.807 18.557C147.538 18.9712 147.738 19.4985 147.422 20.0643L140.028 33.3076C139.7 33.8943 139.16 33.9747 138.429 33.5605C137.699 33.1464 137.487 32.64 137.814 32.0533Z" fill="white"/>
<path d="M159.278 42.5385L148.575 34.0569L147.674 35.2108C146.98 36.0999 147.491 37.2396 149.24 38.6259L152.024 40.832C152.645 41.3239 152.772 41.8232 152.388 42.315C152.004 42.8069 151.493 42.7994 150.872 42.3075L148.088 40.1014C145.041 37.6866 144.222 35.5373 145.684 33.6646L148.579 29.9569C149.968 28.1787 152.05 28.3589 154.777 30.5203L160.213 34.8281C162.884 36.9448 163.585 38.8166 162.329 40.4245L160.675 42.5432C160.32 42.9972 159.842 42.9857 159.278 42.5385ZM150.466 31.6355L149.594 32.7516L159.037 40.2345C159.15 40.324 159.232 40.297 159.291 40.2214L160.059 39.2377C160.738 38.3675 160.363 37.366 158.896 36.2033L153.723 32.1041C152.218 30.9116 151.145 30.7654 150.466 31.6355Z" fill="white"/>
<path d="M162.768 55.4673L157.358 48.9472L154.935 50.9878C154.421 51.4206 153.888 51.3046 153.352 50.6581C152.816 50.0117 152.797 49.4628 153.311 49.0299L161.737 41.9342C163.683 40.2956 165.974 41.0647 168.61 44.2416L171.69 47.9542C174.326 51.1311 174.671 53.5389 172.725 55.1776L169.622 57.7901C167.695 59.4133 165.404 58.6442 162.768 55.4673ZM163.38 43.8766L158.845 47.695L164.301 54.2705C165.818 56.0991 167.046 56.6022 167.964 55.8293L171.103 53.1858C172.04 52.3974 171.748 51.1058 170.231 49.2773L167.043 45.4354C165.541 43.6253 164.316 43.0882 163.38 43.8766Z" fill="white"/>
<path d="M170.525 69.3031L168.365 65.2055C166.429 61.5326 166.588 59.1067 168.81 57.9179L172.387 56.0045C174.63 54.8044 176.714 56.0303 178.65 59.7032L180.81 63.8008C182.746 67.4738 182.587 69.8997 180.344 71.0998L176.767 73.0131C174.545 74.2019 172.461 72.9761 170.525 69.3031ZM175.549 70.7527L179.168 68.8167C180.247 68.2393 180.216 66.8947 179.108 64.7929L176.87 60.5467C175.773 58.466 174.685 57.6875 173.605 58.2649L169.987 60.2009C168.929 60.767 168.938 62.1229 170.035 64.2036L172.273 68.4498C173.381 70.5516 174.491 71.3188 175.549 70.7527Z" fill="white"/>
<path d="M173.264 74.3412L179.886 72.1974C182.306 71.4138 184.143 72.9883 185.398 76.9211L185.959 78.6817C186.207 79.4591 186.012 79.9513 185.395 80.1509C184.779 80.3505 184.335 80.0653 184.087 79.2879L183.496 77.4358C182.782 75.1951 181.846 74.2366 180.704 74.6063L174.037 76.7649C173.398 76.9719 172.947 76.6638 172.692 75.8636C172.436 75.0633 172.648 74.5408 173.264 74.3412Z" fill="white"/>
<path d="M186.294 91.8759L185.607 87.8055L176.925 89.2924C176.263 89.4059 175.86 89.0366 175.724 88.232C175.58 87.38 175.839 86.8973 176.502 86.7839L185.183 85.297L185.02 84.3267C184.892 83.5694 185.131 83.1144 185.746 83.0091C186.362 82.9037 186.737 83.2534 186.865 84.0107L187.028 84.9809L189.205 84.6082C189.843 84.4988 190.266 84.8403 190.406 85.6686C190.55 86.5206 190.267 87.0073 189.628 87.1167L187.452 87.4895L188.139 91.5599C188.27 92.3409 188.031 92.7959 187.416 92.9012C186.801 93.0065 186.425 92.6569 186.294 91.8759Z" fill="white"/>
<path d="M177.052 111.092L190.721 112.599L191.429 106.085C191.514 105.298 191.868 104.926 192.536 105C193.18 105.071 193.47 105.514 193.385 106.301L191.692 121.881C191.604 122.693 191.226 123.061 190.606 122.993C189.938 122.919 189.648 122.477 189.736 121.666L190.441 115.176L176.772 113.669C176.104 113.595 175.817 113.129 175.907 112.294C176.003 111.411 176.384 111.018 177.052 111.092Z" fill="white"/>
<path d="M174.536 136.541L178.715 123.541L177.323 123.087C176.251 122.737 175.365 123.609 174.682 125.734L173.595 129.116C173.353 129.87 172.931 130.161 172.338 129.968C171.745 129.774 171.573 129.289 171.815 128.535L172.902 125.153C174.092 121.452 175.812 119.943 178.071 120.68L182.543 122.139C184.688 122.839 185.247 124.864 184.182 128.177L182.059 134.78C181.016 138.025 179.514 139.327 177.574 138.694L175.019 137.86C174.471 137.682 174.315 137.227 174.536 136.541ZM181.635 124.494L180.289 124.054L176.602 135.524C176.558 135.661 176.612 135.729 176.703 135.759L177.889 136.146C178.939 136.489 179.743 135.792 180.316 134.009L182.335 127.726C182.923 125.898 182.685 124.836 181.635 124.494Z" fill="white"/>
<path d="M169.577 135.626L183.098 142.499C183.676 142.793 183.804 143.342 183.427 144.093C183.051 144.845 182.537 145.068 181.959 144.774L168.438 137.901C167.839 137.596 167.733 137.058 168.109 136.307C168.485 135.555 168.978 135.321 169.577 135.626Z" fill="white"/>
<path d="M160.218 157.696L168.129 146.565L166.942 145.708C166.027 145.049 164.92 145.611 163.627 147.431L161.569 150.326C161.111 150.971 160.621 151.121 160.115 150.756C159.609 150.391 159.592 149.876 160.051 149.231L162.109 146.335C164.361 143.166 166.455 142.25 168.382 143.64L172.197 146.392C174.027 147.712 173.946 149.814 171.93 152.651L167.912 158.304C165.938 161.082 164.113 161.867 162.459 160.674L160.279 159.101C159.812 158.764 159.801 158.283 160.218 157.696ZM170.621 148.362L169.472 147.534L162.492 157.354C162.409 157.471 162.44 157.553 162.517 157.609L163.53 158.339C164.425 158.985 165.401 158.564 166.485 157.039L170.309 151.659C171.421 150.094 171.516 149.008 170.621 148.362Z" fill="white"/>
<path d="M147.569 161.87L153.796 156.126L151.666 153.781C151.214 153.284 151.305 152.743 151.923 152.173C152.54 151.603 153.084 151.559 153.536 152.057L160.944 160.209C162.655 162.092 161.994 164.432 158.959 167.231L155.413 170.502C152.379 173.301 150.006 173.759 148.295 171.876L145.567 168.874C143.873 167.009 144.534 164.669 147.569 161.87ZM159.09 161.952L155.104 157.565L148.823 163.357C147.077 164.968 146.632 166.227 147.439 167.115L150.199 170.153C151.022 171.058 152.29 170.705 154.037 169.094L157.706 165.71C159.435 164.115 159.914 162.857 159.09 161.952Z" fill="white"/>
<path d="M134.195 170.378L138.176 168.01C141.744 165.888 144.161 165.93 145.435 168.105L147.486 171.604C148.772 173.799 147.641 175.951 144.073 178.074L140.092 180.442C136.523 182.564 134.106 182.522 132.82 180.327L130.769 176.827C129.495 174.653 130.626 172.5 134.195 170.378ZM132.964 175.494L135.039 179.035C135.658 180.091 136.993 179.995 139.035 178.78L143.16 176.327C145.182 175.125 145.91 173.993 145.291 172.937L143.216 169.397C142.609 168.361 141.262 168.436 139.241 169.638L135.115 172.092C133.073 173.307 132.357 174.458 132.964 175.494Z" fill="white"/>
<path d="M129.353 173.385L131.763 179.914C132.644 182.301 131.152 184.218 127.286 185.667L125.556 186.315C124.792 186.601 124.293 186.429 124.069 185.821C123.844 185.213 124.11 184.755 124.874 184.469L126.695 183.787C128.897 182.961 129.813 181.977 129.397 180.852L126.97 174.277C126.738 173.647 127.026 173.18 127.812 172.885C128.599 172.591 129.128 172.777 129.353 173.385Z" fill="white"/>
<path d="M112.47 187.268L116.503 186.387L114.65 177.776C114.509 177.119 114.86 176.698 115.657 176.524C116.501 176.34 116.994 176.576 117.135 177.233L118.989 185.844L119.95 185.634C120.7 185.47 121.164 185.688 121.296 186.298C121.427 186.908 121.094 187.3 120.344 187.464L119.382 187.674L119.847 189.833C119.983 190.466 119.66 190.905 118.84 191.084C117.996 191.269 117.498 191.009 117.362 190.376L116.897 188.217L112.864 189.098C112.09 189.267 111.626 189.049 111.495 188.439C111.363 187.829 111.696 187.437 112.47 187.268Z" fill="white"/>
</svg>
