<svg width="217" height="18" viewBox="0 0 217 18" fill="none" xmlns="http://www.w3.org/2000/svg">
<path d="M16.6675 16.88L2.98753 10.496V16.112C2.98753 16.784 2.53153 17.12 1.66753 17.12C0.827531 17.12 0.395531 16.784 0.395531 16.112V1.232C0.395531 0.68 0.779531 0.391999 1.49953 0.391999H12.7795C17.7475 0.391999 20.2435 1.736 20.2435 4.472V6.248C20.2435 8.912 17.7475 10.256 12.7795 10.256H7.04353L18.1795 15.152C18.6835 15.368 18.8995 15.656 18.8995 16.088C18.8995 16.712 18.4195 17.12 17.5795 17.12C17.2195 17.12 17.0515 17.072 16.6675 16.88ZM2.98753 2.528V8.432H12.8515C16.0675 8.432 17.6515 7.712 17.6515 6.248V4.52C17.6515 3.08 16.0675 2.36 12.8755 2.36H3.17953C3.05953 2.36 2.98753 2.408 2.98753 2.528ZM41.3367 17H31.4727C26.7927 17 24.4407 15.464 24.4407 12.392V4.928C24.4407 1.904 26.7447 0.391999 31.3527 0.391999H34.7847C35.5767 0.391999 35.9847 0.727999 35.9847 1.376C35.9847 2.024 35.5767 2.36 34.7847 2.36H31.4007C28.4967 2.36 27.0327 3.224 27.0327 4.976V7.688H41.3367C42.1047 7.688 42.4887 8 42.4887 8.624C42.4887 9.248 42.1047 9.56 41.3367 9.56H27.0327V12.32C27.0327 14.12 28.5207 15.032 31.5927 15.032H41.3367C42.1527 15.032 42.5607 15.368 42.5607 16.016C42.5607 16.664 42.1527 17 41.3367 17ZM65.4258 16.424L62.9298 12.56H50.8098L48.3378 16.424C48.0258 16.904 47.5938 17.12 47.0898 17.12C46.2978 17.12 45.7698 16.76 45.7698 16.136C45.7698 15.896 45.8178 15.704 46.0338 15.392L55.5378 0.92C55.8258 0.487999 56.3298 0.295999 56.8578 0.271999C57.3858 0.271999 57.8418 0.487999 58.1298 0.92L67.6578 15.368C67.8978 15.68 67.9698 15.896 67.9698 16.136C67.9698 16.76 67.4418 17.12 66.6498 17.12C66.1698 17.12 65.7378 16.904 65.4258 16.424ZM56.8578 3.128L52.0098 10.712H61.7538L56.8578 3.128ZM87.9835 17H77.9275C73.2475 17 70.8955 15.44 70.8955 12.296V1.28C70.8955 0.607999 71.3275 0.271999 72.1675 0.271999C73.0315 0.271999 73.4875 0.607999 73.4875 1.28V12.224C73.4875 14.096 74.9755 15.032 78.0475 15.032H87.9835C88.7755 15.032 89.1835 15.368 89.1835 16.016C89.1835 16.664 88.7755 17 87.9835 17ZM92.7862 16.112V1.28C92.7862 0.607999 93.2422 0.271999 94.1302 0.271999C94.9462 0.271999 95.3782 0.607999 95.3782 1.28V16.112C95.3782 16.784 94.9222 17.12 94.0582 17.12C93.2182 17.12 92.7862 16.784 92.7862 16.112ZM106.699 16.112V2.36H100.147C99.3547 2.36 98.9467 2.048 98.9467 1.376C98.9467 0.727999 99.3547 0.391999 100.147 0.391999H115.819C116.635 0.391999 117.043 0.727999 117.043 1.352C117.043 2.024 116.635 2.36 115.819 2.36H109.291V16.112C109.291 16.784 108.859 17.12 108.019 17.12C107.131 17.12 106.699 16.784 106.699 16.112ZM120.653 16.112V1.28C120.653 0.607999 121.109 0.271999 121.997 0.271999C122.813 0.271999 123.245 0.607999 123.245 1.28V16.112C123.245 16.784 122.789 17.12 121.925 17.12C121.085 17.12 120.653 16.784 120.653 16.112ZM144.79 17H134.926C130.246 17 127.894 15.464 127.894 12.392V4.928C127.894 1.904 130.198 0.391999 134.806 0.391999H138.238C139.03 0.391999 139.438 0.727999 139.438 1.376C139.438 2.024 139.03 2.36 138.238 2.36H134.854C131.95 2.36 130.486 3.224 130.486 4.976V7.688H144.79C145.558 7.688 145.942 8 145.942 8.624C145.942 9.248 145.558 9.56 144.79 9.56H130.486V12.32C130.486 14.12 131.974 15.032 135.046 15.032H144.79C145.606 15.032 146.014 15.368 146.014 16.016C146.014 16.664 145.606 17 144.79 17ZM167.943 11.24V13.184C167.943 15.728 165.495 17 160.647 17H150.903C150.111 17 149.679 16.664 149.679 16.016C149.679 15.368 150.111 15.032 150.903 15.032H160.647C163.767 15.032 165.327 14.36 165.327 13.04V11.336C165.327 10.04 163.863 9.392 160.887 9.392H156.351C151.983 9.392 149.799 8.192 149.799 5.84V4.088C149.799 1.64 152.055 0.391999 156.519 0.391999H159.207C159.999 0.391999 160.407 0.727999 160.407 1.376C160.407 2.024 159.999 2.36 159.207 2.36H156.543C153.783 2.36 152.391 2.96 152.391 4.184V5.672C152.391 6.872 153.711 7.448 156.327 7.448H160.695C165.519 7.448 167.943 8.72 167.943 11.24ZM184.508 17H179.036C174.356 17 172.004 15.44 172.004 12.296V1.28C172.004 0.607999 172.436 0.271999 173.3 0.271999C174.164 0.271999 174.596 0.607999 174.596 1.28V12.224C174.596 14.096 176.108 15.032 179.156 15.032H184.388C187.436 15.032 188.924 14.096 188.924 12.224V1.28C188.924 0.607999 189.38 0.271999 190.244 0.271999C191.108 0.271999 191.54 0.607999 191.54 1.28V12.296C191.54 15.44 189.164 17 184.508 17ZM214.113 16.424L211.617 12.56H199.497L197.025 16.424C196.713 16.904 196.281 17.12 195.777 17.12C194.985 17.12 194.457 16.76 194.457 16.136C194.457 15.896 194.505 15.704 194.721 15.392L204.225 0.92C204.513 0.487999 205.017 0.295999 205.545 0.271999C206.073 0.271999 206.529 0.487999 206.817 0.92L216.345 15.368C216.585 15.68 216.657 15.896 216.657 16.136C216.657 16.76 216.129 17.12 215.337 17.12C214.857 17.12 214.425 16.904 214.113 16.424ZM205.545 3.128L200.697 10.712H210.441L205.545 3.128Z" fill="#2F3231"/>
</svg>
