<svg width="59" height="31" fill="none" xmlns="http://www.w3.org/2000/svg"><path d="M.204.798h2.368v23.04H.204V.798zM14.45 24.03c-1.13 0-2.165-.192-3.104-.576a7.242 7.242 0 01-2.432-1.696 7.882 7.882 0 01-1.6-2.56c-.363-1.003-.544-2.09-.544-3.264v-.832c0-1.195.181-2.283.544-3.264a7.882 7.882 0 011.6-2.56 6.87 6.87 0 012.432-1.664c.938-.405 1.973-.608 3.104-.608h.32c1.13 0 2.165.203 3.104.608.938.384 1.75.939 2.432 1.664a7.465 7.465 0 011.568 2.56c.384.981.576 2.07.576 3.264v.832c0 1.173-.192 2.261-.576 3.264a7.465 7.465 0 01-1.568 2.56 7.244 7.244 0 01-2.432 1.696c-.939.384-1.974.576-3.104.576h-.32zm.288-2.368c.79 0 1.504-.139 2.144-.416a4.533 4.533 0 001.632-1.184c.47-.512.821-1.12 1.056-1.824a6.695 6.695 0 00.384-2.304v-.832c0-.853-.128-1.632-.384-2.336a5.051 5.051 0 00-1.088-1.792A4.533 4.533 0 0016.85 9.79a5.256 5.256 0 00-2.112-.416h-.256c-.768 0-1.472.139-2.112.416a4.845 4.845 0 00-1.664 1.184c-.448.49-.8 1.088-1.056 1.792s-.384 1.483-.384 2.336v.832c0 .832.117 1.6.352 2.304a5.69 5.69 0 001.056 1.824c.47.512 1.024.907 1.664 1.184.64.277 1.354.416 2.144.416h.256zm10.72-8.896c0-.853.16-1.632.48-2.336a5.407 5.407 0 011.345-1.824 6.073 6.073 0 012.048-1.184c.81-.277 1.707-.416 2.688-.416h.448c.746 0 1.44.085 2.08.256.64.15 1.227.373 1.76.672.17-.405.352-.8.544-1.184a6.36 6.36 0 01.704-1.152h2.368l-1.984 3.808c.725.96 1.088 2.08 1.088 3.36v.448c0 .853-.16 1.632-.48 2.336a5.407 5.407 0 01-1.344 1.824c-.576.512-1.27.907-2.08 1.184-.81.277-1.696.416-2.656.416h-.448c-.598 0-1.11-.043-1.536-.128v1.984a15.368 15.368 0 011.76-.096h.48c2.176 0 3.893.416 5.152 1.248 1.258.832 1.888 1.984 1.888 3.456v.288c0 1.45-.63 2.592-1.888 3.424-1.259.832-2.976 1.248-5.152 1.248h-.48c-2.197 0-3.925-.416-5.184-1.248-1.238-.81-1.856-1.952-1.856-3.424v-.288c0-.939.256-1.75.768-2.432.533-.683 1.28-1.216 2.24-1.6v-3.36a5.385 5.385 0 01-2.048-1.984c-.47-.832-.704-1.781-.704-2.848v-.448zm2.465.448c0 1.067.373 1.92 1.12 2.56.768.64 1.77.96 3.008.96h.384c1.237 0 2.23-.32 2.976-.96.768-.661 1.152-1.515 1.152-2.56v-.448c0-1.045-.384-1.888-1.152-2.528-.747-.661-1.739-.992-2.976-.992h-.384c-1.237 0-2.24.32-3.008.96-.747.64-1.12 1.493-1.12 2.56v.448zm-.256 12.448c0 .81.384 1.44 1.152 1.888.79.448 1.941.672 3.456.672h.416c1.515 0 2.656-.235 3.424-.704.79-.448 1.184-1.067 1.184-1.856v-.16c0-.81-.395-1.44-1.184-1.888-.79-.47-1.93-.704-3.424-.704h-.416c-1.494 0-2.635.235-3.424.704-.79.448-1.184 1.077-1.184 1.888v.16zm22.377-1.632c-1.131 0-2.166-.192-3.104-.576a7.244 7.244 0 01-2.432-1.696 7.883 7.883 0 01-1.6-2.56c-.363-1.003-.544-2.09-.544-3.264v-.832c0-1.195.181-2.283.544-3.264a7.883 7.883 0 011.6-2.56 6.871 6.871 0 012.432-1.664c.938-.405 1.973-.608 3.104-.608h.32c1.13 0 2.165.203 3.104.608A6.87 6.87 0 0155.9 9.278a7.462 7.462 0 011.568 2.56c.384.981.576 2.07.576 3.264v.832c0 1.173-.192 2.261-.576 3.264a7.462 7.462 0 01-1.568 2.56 7.242 7.242 0 01-2.432 1.696c-.939.384-1.974.576-3.104.576h-.32zm.288-2.368c.789 0 1.504-.139 2.144-.416a4.533 4.533 0 001.632-1.184 5 5 0 001.056-1.824 6.695 6.695 0 00.384-2.304v-.832c0-.853-.128-1.632-.384-2.336a5.05 5.05 0 00-1.088-1.792 4.533 4.533 0 00-1.632-1.184 5.256 5.256 0 00-2.112-.416h-.256c-.768 0-1.472.139-2.112.416a4.846 4.846 0 00-1.664 1.184c-.448.49-.8 1.088-1.056 1.792s-.384 1.483-.384 2.336v.832c0 .832.117 1.6.352 2.304a5.69 5.69 0 001.056 1.824 4.838 4.838 0 001.664 1.184c.64.277 1.354.416 2.144.416h.256z" fill="#F5F5F5"/></svg>