<svg width="622" height="81" viewBox="0 0 622 81" fill="none" xmlns="http://www.w3.org/2000/svg">
<path d="M44.5667 10.3521H5.07008C0.500749 10.3521 0 13.2628 0 14.5147V66.5947C0 68.3474 0.719826 71.3207 5.66472 71.3207C10.6096 71.3207 11.4859 68.3474 11.4859 66.5947V48.8174L57.6174 70.3505C58.3686 70.726 58.9632 70.9764 59.4952 71.1016C60.0273 71.2268 60.6219 71.3207 61.3418 71.3207C63.0631 71.3207 64.4714 70.9138 65.5042 70.1001C66.5996 69.2237 67.163 68.0031 67.163 66.5008C67.163 65.155 66.5996 63.2771 63.9081 62.1191L30.2014 47.2838H44.5354C62.6562 47.2838 71.8575 42.1509 71.8575 32.0416V25.8133C71.8575 15.5476 62.6562 10.3208 44.5354 10.3208L44.5667 10.3521ZM60.4028 26.0011V32.0416C60.4028 36.3295 55.145 38.489 44.817 38.489H11.4859V19.6476H44.8796C55.1763 19.6476 60.4028 21.7759 60.4028 26.0011Z" fill="#F5F5F5"/>
<path d="M125.269 27.6606H100.982C88.0255 27.6606 81.4531 32.0737 81.4531 40.8058V57.2686C81.4531 66.3137 88.7453 70.9145 103.142 70.9145H115.567C120.261 70.9145 120.981 68.0977 120.981 66.4389C120.981 64.7801 120.292 61.9633 115.567 61.9633H103.142C96.1939 61.9633 92.6574 60.3671 92.6574 57.206V53.2938H139.258C143.828 53.2938 144.328 50.3204 144.328 49.0685V39.6478C144.328 31.6981 137.913 27.6919 125.237 27.6919L125.269 27.6606ZM133.124 41.3066V45.0624H92.6887V41.3066C92.6887 40.1799 92.6887 36.7058 101.483 36.7058H124.58C133.124 36.7058 133.124 40.1486 133.124 41.3066Z" fill="#F5F5F5"/>
<path d="M197.371 27.6606H185.541C180.847 27.6606 180.127 30.5088 180.127 32.2302C180.127 33.9516 180.815 36.7058 185.541 36.7058H197.371C206.51 36.7058 206.51 40.2112 206.51 41.3692L172.021 41.4318C159.283 41.4318 152.836 45.5631 152.836 53.7319V58.5205C152.836 66.7206 159.283 70.9145 172.021 70.9145H198.154C211.111 70.9145 217.683 66.5328 217.683 57.8632V41.4005C217.683 32.2928 210.86 27.6919 197.403 27.6919L197.371 27.6606ZM206.51 49.6632V57.6129C206.51 58.677 206.51 61.9633 197.653 61.9633H172.709C164.103 61.9633 164.103 58.9587 164.103 57.9571V53.5754C164.103 50.9777 167.013 49.6632 172.709 49.6632H206.541H206.51Z" fill="#F5F5F5"/>
<path d="M236.673 8.75537C231.759 8.75537 231.008 11.7287 231.008 13.4814V66.5629C231.008 68.3155 231.728 71.2889 236.673 71.2889C241.617 71.2889 242.337 68.3155 242.337 66.5629V13.4814C242.337 11.6974 241.617 8.75537 236.673 8.75537Z" fill="#F5F5F5"/>
<path d="M261.692 27.2222C256.778 27.2222 256.027 30.1955 256.027 31.9482V66.5638C256.027 68.3165 256.747 71.2898 261.692 71.2898C266.637 71.2898 267.357 68.3165 267.357 66.5638V31.9482C267.357 30.1955 266.637 27.2222 261.692 27.2222Z" fill="#F5F5F5"/>
<path d="M261.7 23.6855C265.054 23.6855 267.772 21.3454 267.772 18.4587C267.772 15.572 265.054 13.2319 261.7 13.2319C258.347 13.2319 255.629 15.572 255.629 18.4587C255.629 21.3454 258.347 23.6855 261.7 23.6855Z" fill="#F5F5F5"/>
<path d="M310.253 28.0046H297.015V21.4946C297.015 19.7419 296.263 16.7686 291.256 16.7686C286.248 16.7686 285.685 19.7419 285.685 21.4946V28.0046H283.432C278.8 28.0046 278.111 30.8214 278.111 32.4802C278.111 34.139 278.8 36.9558 283.432 36.9558H285.685V66.5637C285.685 68.3164 286.436 71.2898 291.412 71.2898C296.389 71.2898 296.983 68.3164 296.983 66.5637V36.9558H310.222C314.916 36.9558 315.636 34.139 315.636 32.4802C315.636 30.8214 314.948 28.0046 310.222 28.0046H310.253Z" fill="#F5F5F5"/>
<path d="M332.083 13.1992C326.794 13.1992 326.012 16.4855 326.012 18.426C326.012 20.3665 326.794 23.6528 332.083 23.6528C337.372 23.6528 338.155 20.3665 338.155 18.426C338.155 16.4855 337.372 13.1992 332.083 13.1992Z" fill="#F5F5F5"/>
<path d="M332.077 27.2222C327.163 27.2222 326.412 30.1955 326.412 31.9482V66.5638C326.412 68.3165 327.132 71.2898 332.077 71.2898C337.022 71.2898 337.742 68.3165 337.742 66.5638V31.9482C337.742 30.1955 336.99 27.2222 332.077 27.2222Z" fill="#F5F5F5"/>
<path d="M394.849 27.6606H370.562C357.606 27.6606 351.033 32.0737 351.033 40.8058V57.2686C351.033 66.3137 358.325 70.9145 372.753 70.9145H385.178C389.873 70.9145 390.592 68.0977 390.592 66.4389C390.592 64.7801 389.904 61.9633 385.178 61.9633H372.753C365.805 61.9633 362.269 60.3671 362.269 57.206V53.2938H408.87C413.439 53.2938 413.94 50.3204 413.94 49.0685V39.6478C413.94 31.6981 407.524 27.6919 394.849 27.6919V27.6606ZM402.704 41.3066V45.0624H362.269V41.3066C362.269 40.1799 362.269 36.7058 371.063 36.7058H394.16C402.704 36.7058 402.704 40.1486 402.704 41.3066Z" fill="#F5F5F5"/>
<path d="M462.152 45.5324H444.844C435.612 45.5324 435.142 43.6858 435.142 43.3102V39.617C435.142 37.7705 438.71 36.7063 444.938 36.7063H456.456C458.083 36.7063 459.335 36.362 460.305 35.6735C461.056 35.1414 461.964 34.1086 461.964 32.1994C461.964 30.478 461.244 27.6299 456.456 27.6299H444.938C431.043 27.6299 424.001 31.6673 424.001 39.5857V43.5293C424.001 50.4149 430.855 53.8889 444.375 53.8889H461.682C470.57 53.8889 470.821 55.5165 470.821 55.5478V60.2425C470.821 60.2425 470.57 61.9013 461.682 61.9013H428.914C424.22 61.9013 423.5 64.7181 423.5 66.3769C423.5 68.0357 424.189 70.8525 428.914 70.8525H461.682C475.202 70.8525 482.056 67.2845 482.056 60.2425V55.2974C482.056 48.8187 475.39 45.5324 462.214 45.5324H462.152Z" fill="#F5F5F5"/>
<path d="M544.007 60.813H534.519C530.041 60.813 527.072 60.0783 525.595 58.5936C524.118 57.1165 523.376 54.1393 523.376 49.6619V0H502.056V49.6696C502.056 60.1324 503.928 67.6722 507.686 72.2888C511.722 77.2148 518.519 79.7745 528.008 80.0297L537.241 80.0761L544.007 60.813Z" fill="#F5F5F5"/>
<path d="M565.351 0H550.837V41.3411L565.351 0Z" fill="#F5F5F5"/>
<path d="M570.515 60.813H570.523L581.155 30.4838L592.6 60.813H574.83L568.095 80.0761H621.056L591.842 0H569.657L541.525 80.0761H563.671L570.515 60.813Z" fill="#F5F5F5"/>
</svg>
