<svg width="39" height="12" fill="none" xmlns="http://www.w3.org/2000/svg"><path d="M.917.5h1.2v9.36h4.335V11H.917V.5zm6.206 5.1c0-.8.12-1.52.36-2.16.24-.64.575-1.19 1.005-1.65.43-.46.94-.81 1.53-1.05a4.909 4.909 0 011.935-.375h.15c.7 0 1.345.125 1.935.375.59.24 1.1.59 1.53 1.05.43.46.765 1.01 1.005 1.65.24.64.36 1.36.36 2.16v.3c0 .79-.12 1.51-.36 2.16-.24.64-.575 1.19-1.005 1.65-.43.46-.94.815-1.53 1.065-.59.24-1.235.36-1.935.36h-.15c-.7 0-1.345-.12-1.935-.36-.59-.25-1.1-.605-1.53-1.065a4.908 4.908 0 01-1.005-1.65c-.24-.65-.36-1.37-.36-2.16v-.3zm1.26.3c0 .61.09 1.17.27 1.68.19.5.445.925.765 1.275.32.35.695.625 1.125.825.44.19.915.285 1.425.285h.12c.51 0 .98-.095 1.41-.285.44-.2.82-.475 1.14-.825.32-.35.57-.775.75-1.275.19-.51.285-1.07.285-1.68v-.3a4.7 4.7 0 00-.285-1.68c-.18-.5-.43-.925-.75-1.275-.32-.35-.7-.62-1.14-.81-.43-.2-.9-.3-1.41-.3h-.12c-.51 0-.985.1-1.425.3-.43.19-.805.46-1.125.81-.32.35-.575.775-.765 1.275-.18.5-.27 1.06-.27 1.68v.3zm14.657 5.22c-.72 0-1.375-.125-1.965-.375a4.325 4.325 0 01-1.5-1.065c-.41-.46-.73-1.01-.96-1.65-.22-.64-.33-1.355-.33-2.145V5.6c0-.78.115-1.49.345-2.13.24-.65.565-1.2.975-1.65.42-.46.92-.815 1.5-1.065.58-.26 1.215-.39 1.905-.39h.15c.39 0 .77.055 1.14.165.38.1.735.25 1.065.45.33.19.63.425.9.705.28.27.515.58.705.93l-1.05.645c-.28-.54-.65-.96-1.11-1.26-.46-.31-1.02-.465-1.68-.465h-.12c-.52 0-.995.1-1.425.3-.42.19-.785.46-1.095.81-.3.35-.535.775-.705 1.275-.16.5-.24 1.06-.24 1.68v.3c0 .61.085 1.165.255 1.665.17.5.405.925.705 1.275.31.35.68.625 1.11.825.44.19.925.285 1.455.285h.105c.44 0 .84-.07 1.2-.21.37-.14.685-.335.945-.585.27-.26.475-.565.615-.915.15-.36.225-.755.225-1.185V6.77h-2.745V5.63h3.93V11h-.915c-.05-.14-.1-.32-.15-.54a8.64 8.64 0 01-.09-.66c-.34.4-.785.72-1.335.96-.55.24-1.13.36-1.74.36h-.075zm6.056-5.52c0-.8.12-1.52.36-2.16.24-.64.575-1.19 1.005-1.65.43-.46.94-.81 1.53-1.05a4.909 4.909 0 011.935-.375h.15c.7 0 1.345.125 1.935.375.59.24 1.1.59 1.53 1.05.43.46.765 1.01 1.005 1.65.24.64.36 1.36.36 2.16v.3c0 .79-.12 1.51-.36 2.16-.24.64-.575 1.19-1.005 1.65-.43.46-.94.815-1.53 1.065-.59.24-1.235.36-1.935.36h-.15c-.7 0-1.345-.12-1.935-.36-.59-.25-1.1-.605-1.53-1.065a4.908 4.908 0 01-1.005-1.65c-.24-.65-.36-1.37-.36-2.16v-.3zm1.26.3c0 .61.09 1.17.27 1.68.19.5.445.925.765 1.275.32.35.695.625 1.125.825.44.19.915.285 1.425.285h.12c.51 0 .98-.095 1.41-.285.44-.2.82-.475 1.14-.825.32-.35.57-.775.75-1.275.19-.51.285-1.07.285-1.68v-.3a4.7 4.7 0 00-.285-1.68c-.18-.5-.43-.925-.75-1.275-.32-.35-.7-.62-1.14-.81-.43-.2-.9-.3-1.41-.3h-.12c-.51 0-.985.1-1.425.3-.43.19-.805.46-1.125.81-.32.35-.575.775-.765 1.275-.18.5-.27 1.06-.27 1.68v.3z" fill="#282323"/></svg>